<svg xmlns="http://www.w3.org/2000/svg" xmlns:xlink="http://www.w3.org/1999/xlink" viewBox="0 0 695.11 173.78"><defs><style>.cls-1{fill:url(#radial-gradient);}.cls-2,.cls-3,.cls-4{fill-rule:evenodd;}.cls-2{fill:url(#radial-gradient-2);}.cls-3{fill:#fefacf;}.cls-4{fill:url(#radial-gradient-3);}</style><radialGradient id="radial-gradient" cx="595.56" cy="139.62" r="689.98" gradientUnits="userSpaceOnUse"><stop offset="0" stop-color="#fffef8"/><stop offset="0.13" stop-color="#fff"/><stop offset="0.18" stop-color="#fefacf"/><stop offset="0.64" stop-color="#c8cfc4"/><stop offset="0.82" stop-color="#bb9e8e"/><stop offset="1" stop-color="#ae7565"/></radialGradient><radialGradient id="radial-gradient-2" cx="604.75" cy="81.19" r="610.18" gradientUnits="userSpaceOnUse"><stop offset="0" stop-color="#fffef8"/><stop offset="0.13" stop-color="#fff"/><stop offset="0.18" stop-color="#fefce4"/><stop offset="0.64" stop-color="#dbdfd8"/><stop offset="1" stop-color="#caa69a"/></radialGradient><radialGradient id="radial-gradient-3" cx="604.75" cy="142.2" r="610.75" gradientUnits="userSpaceOnUse"><stop offset="0" stop-color="#9b9f9c"/><stop offset="0.38" stop-color="#516173"/><stop offset="1" stop-color="#102d4b"/></radialGradient></defs><g id="Layer_2" data-name="Layer 2"><g id="Layer_1-2" data-name="Layer 1"><rect class="cls-1" width="695.11" height="173.78"/><path class="cls-2" d="M694.7,19.3h.41v1h-1.26c-11.92.31-31.28.41-45.9.41-10.59,0-21.9,0-31.93-.17-19.11,1-134.67.89-156.47.07-11.2.34-29,.37-41.47.37-11.32,0-25.7-.06-35.89-.25-7.82.15-18.12.21-26.91.21-9,0-19.71-.06-27.62-.22-4,0-27.48.25-52.05-.15-36.3-.58.45-1.62,48.35-1.33,7.86-.63,39.57-.72,52.05-.72,11.66,0,24.54.06,35.25.22,16.52-.36,42.75-.47,61.93-.47,17.33,0,37.62.08,53.61.32,15.08-.36,39-.49,57.17-.49,13.71,0,28.26.06,41.14.22,8.66.1,18.63.28,24,.54,14.66,0,34.11.12,45.62.43ZM0,0H0V3.47H7.4c27.62,0,57.08-.28,83.27-1C104.09,4,138.24,4.88,159.52,5.32,238.52,7,351.78,7,430.93,5.38c20.62-.42,52.24-1.22,67.85-2.53C525.38,4.64,577.2,5,606.94,5,634.5,5,669,4.71,695.11,3.8V0ZM0,9.59H0V18.3C11.94,18,21,17.55,25.65,17c14,.37,29.84.52,44.66.52,20.44,0,47.54-.32,64.21-1.27.27,0,33.65.88,62.82-.15,20.43-.73,20.44-2,0-2.77-18.32-.64-42.77-.66-61.62-.18-16.11-1-43.3-1.32-63.83-1.34-7.48-.8-21.41-1.33-33.53-1.65S13.12,9.68,0,9.59ZM0,29.32H0v3.4l6.29-.06C15,32.57,29,32.4,34.54,32.1c10.74.14,22.83.2,34.16.2,15.64,0,36.37-.13,49.13-.48,7,.09,14.84.13,22.2.13,8.58,0,18.11-.05,25.85-.18,15.59-.27,15.59-.75,0-1-14.65-.25-32.19-.25-47.14-.07-12.32-.36-33.12-.49-48.83-.5-5.72-.29-16.37-.49-25.65-.61-13.8-.17-29.35-.25-44-.25ZM0,42.45H0v1.61c20-.24,32.79-.48,35.54-.72C313.69,45.13,157,42.6,0,42.45ZM0,51H0V52.7q23.15-.06,60.93-.54c31.51-.41,63.6-.19,65.89-.34,30.59.15,62.52,0,60.89-.23,150.46-.09,129.43-.77-.27-.74,5.35-.28-35.3-.46-68.14-.21.25-.06,0-.12-.69-.18-20.89,0-41.79-.13-62.61,0-23.06.14-41.68.35-56,.57Zm0,12.4H0v2.5c103.76-.63,133.08-2,0-2.5ZM695.11,95.6h0V95L642.2,95c6-.24-39.43-.41-76.1-.18.28-.06,0-.11-.77-.16-23.32,0-46.66-.12-69.92,0-141.12.7-134.38,3,5.51,1.52,35.19-.38,71-.18,73.58-.31,34.16.13,69.81,0,68-.21,20.3,0,37.78,0,52.61-.05Zm0-10.06h0v-.4c-45.88.13-53.28.3,0,.4Zm0-25.15h0V56.48c-6.36.23-12.46.5-18.26.83-80-.68-121.41-.36-118,.86-384.68.37-239.92,1.39,54.25,1.32-11.32.74,18.81,1.35,82,.9Zm0-8.26h0c-51.08.07-97-.06-88.69-.24-239.66,0-311.54-.63,1.41-.73-2.08-.26,39-.39,87.28-.36v1.33Zm0-7.42h0V43.08c-77.06.51-93.85,1.25,0,1.63Zm0-15.86h0V25.47c-11.92.09-24.9.32-33.38.78-6-.14-12.71-.19-19-.19-44.68,0-44.68,2.27,0,2.27,6.57,0,13.62-.06,19.84-.21,8.51.43,21,.65,32.56.73ZM380.65,75.33h0c-30,.14-60,0-90.12,0-1-.06-1.34-.12-1-.19-47.27.27-105.77.07-98.08-.2-186.69,0-216.95-.67-.39-.76-2.34-.29,43.61-.39,87.64-.24,3.29-.15,49.49.08,94.84-.34,180.31-1.69,189,.92,7.1,1.73ZM116.51,90.41h0c17.26-.08,34.59,0,51.91,0,.57,0,.78.08.57.12,27.23-.17,60.94,0,56.5.14,107.55,0,125,.43.23.49,1.35.19-25.12.25-50.49.15-1.89.1-28.51,0-54.64.23-103.87,1.1-108.88-.6-4.08-1.13ZM321.19,38.18h0c-6.11,0-44.26-.11-44.26.23s24.76.28,28.28.28c5.52,0,11.44,0,16.67,0,9.58.14,25.15.19,36.9.19,8.51,0,17.6,0,25.66-.08,4.13.12,14.67.2,21.22.23,27,.15,56.6.15,83.65,0,6.36,0,16.09-.1,20.92-.21,3.17.06,7.71.1,11.59.12,6.88,0,14.51.06,21.73.06,9.12,0,20.67,0,28.87-.12,6.29.07,14.56.1,21.63.1,7.26,0,15.84,0,22.19-.1,5.13,0,10.49,0,15.76,0,50,0,50-.74,0-.74l-12.78,0c-2.39-.11-8.43-.19-13.92-.23-8.52-.07-18.61-.1-27.91-.1s-19.73,0-28.35.1c-13.27-.16-34.36-.22-49.79-.22-13.93,0-30.24,0-43.08.15-12.12-.17-31.36-.23-46-.23-11,0-22.71,0-33.07.11-7,0-15,.12-19.27.24C346.08,38,330.45,38,321.19,38.18Z"/><path class="cls-3" d="M331.59,136.71a1.06,1.06,0,0,1-.55-.83c0-.53,0-1.06,0-1.59a1.14,1.14,0,0,1,.46-.85,2.53,2.53,0,0,1,0-.28,1,1,0,0,1-.5-.8c0-.52,0-1.05-.08-1.56v-.09a1.32,1.32,0,0,1,.49-.81c0-.53,0-1.06,0-1.59V128h.13c.36-1,2.13-1.32,3-1.36s3,.17,3.19,1.37v.14c0,.49,0,1,0,1.47a1.25,1.25,0,0,1,.68.81v.06c0,.54,0,1.08,0,1.61a1.16,1.16,0,0,1-.64,1v.14a1.23,1.23,0,0,1,.68.8V134c0,.54,0,1.07,0,1.61a1.15,1.15,0,0,1-.64,1v.24a1.29,1.29,0,0,1,.68.82v0c0,.54,0,1.08,0,1.61a1.17,1.17,0,0,1-.59.95c0,.21,0,.43,0,.64l.68,0-.06-2.3v-.34h.35l7.72-.23h.19l.11.16c1,1.41.9,1,.92,2.5l1.22,0h.21l.1.19h0Q362,135.44,374.68,130c0-.55,0-1.1,0-1.65a1.34,1.34,0,0,1-.32-1.24,1.82,1.82,0,0,1,1.79-1.11c.76-.06,1.64.11,1.9.92a1.41,1.41,0,0,1-.16,1.21c0,.65.07,1.3.12,2,1.51.69,3,1.35,4.54,2,0-3,0-5.95,0-8.92a1.54,1.54,0,0,1-.38-1.37,2,2,0,0,1,2-1.33c.89-.07,1.91.13,2.13,1.13a1.9,1.9,0,0,1-.23,1.34c.21,3.66.38,7.33.59,11,.88.41,1.78.8,2.67,1.19,0-.39,0-.79,0-1.18v-.24l.23-.09.29-.11c0-.64,0-1.29,0-1.94v-.24l.17-.06-.17-.11.2-.29c1.13-1.67,1-1.39,2.88-2.07l.18-.07.15.12c.17.13.36.26.54.38,0-2.88,0-5.77,0-8.65,0-3.11,0-6.21.06-9.3-.08-1.74,4.95-2.12,5-.38l1,19.31c1-.35,2.07-.69,3.1-1l.21-.07.15.15c.31.32.63.62.95.91l.88-1.2.12-.16.21,0,.31,0c0-.25,0-.5,0-.74a1.84,1.84,0,0,1-.05-2.54v-.19a1.87,1.87,0,0,1-.1-2.52v-.13a1.83,1.83,0,0,1,0-2.52l0-1.15v0c.22-1.59,5.14-1.89,5.43-.29v.06c0,.36,0,.73,0,1.09.83.4.64,1,.65,1.91a1,1,0,0,1-.54.77c.77.41.58,1,.59,1.89a1,1,0,0,1-.55.77v.07c.78.42.58,1,.6,1.9a.94.94,0,0,1-.55.79c0,.5,0,1,.05,1.49l1.32.15c0-.76,0-1.52,0-2.27v-.14l.1-.1q7-7.29,13.89-14.58l.14-.15.19,0,5.77,1.23.21-33.25c0-2.49,8.6-3.69,8.63-.85q.41,8,.78,16.07c.24,5.13.56,10.26.83,15.39.5-.38,1-.75,1.5-1.12l.13-.09.16,0a22.47,22.47,0,0,1,3.55.9,12.87,12.87,0,0,1,1.94,2.08l.28.32-.38.21a2,2,0,0,0-.25.14l.37.09.26.07V114c0,1.2.08,2.41.1,3.61l.72.16.28.05v.28c0,.84,0,1.69,0,2.53l6-2.9L458,97.59c-.76-.62-.52-1.68-.51-2.54,0-2.21,7.39-2.86,7.63-.65.11,1.07.25,2.45-.71,3.2.26,5.45.65,10.89.92,16.35,3.43-1.68,6.87-3.37,10.31-5,0-1.31,0-2.62,0-3.93-.75-.49-.51-1.47-.49-2.24,0-2,7.2-2.47,7.43-.54.11.93.24,1.86-.62,2.45.21,5.07.5,10.14.79,15.2,5.19,1.35,10.37,2.73,15.55,4.1l.25.07v.89l4,1v0c0-1.22-.21-1.72,1.07-2.15,0-.38,0-.77-.06-1.14v-.08l0-.07c.4-1.19,5.12-1.44,6.18-1.49s5.22-.24,6.17.71h.21V122c0,.39,0,.78.06,1.17,1.53.31,1.38.63,1.4,2.11v0c1.14-.66,4.1-.78,4.86-.82s5-.2,5.41.86l0,0v.06c0,.31,0,.62,0,.93,1.27.24,1.18.6,1.2,1.83a.22.22,0,0,1,0,.08,16.71,16.71,0,0,1,4.11-.54c.84,0,4.59-.17,5,.79l0,.06v.06c0,.26,0,.53,0,.79.41.08.93.22,1,.58v.05c.14,1,.06,1.38-.63,1.66.29.09.56.23.63.47v0c.16,1.05.09,1.42-.72,1.69.79.22.79.57.8,1.58,0,.46-.63.66-1.08.76,0,1.18.06,2.36.07,3.54l6.54-.55h.1l4.5.84c2.93-3.3,5.87-6.61,8.83-9.88l.12-.13.17,0,.57.05c0-.24,0-.49,0-.73a.81.81,0,0,1-.57-.69c0-.77-.24-1.46.5-1.92v-.11a.86.86,0,0,1-.53-.68c0-.77-.24-1.47.51-1.92v0a.84.84,0,0,1-.53-.69c0-.75-.26-1.5.51-1.93,0-.37,0-.74,0-1.12.13-1.56,6.31-1.94,6.48-.25l.05,1.07a1.1,1.1,0,0,1,.71.65v0c.11.9.19,1.56-.63,2,.88.39.7,1,.71,1.91,0,.38-.4.64-.75.79v0a1.13,1.13,0,0,1,.75.64v0c.12,1,.18,1.62-.74,2,0,.48,0,1,0,1.46,1.67.16,3.35.31,5,.45.72-.52,1.48-1,2.22-1.5l.1-.07h.13q13.85,1.4,27.69,2.75l.31,0v.31c0,2.73.08,5.47.1,8.21,7.87,1.6,15.75,3.16,23.62,4.76h1.18l-.31-34.35a5.18,5.18,0,0,1,.18-1.36c1.59-6,12.68-7.93,17.83-8.3s16.41,0,18.85,5.69a5.12,5.12,0,0,1,.43,2.07l.22,35.87,7.21-.08c0-4.76,0-9.51-.05-14.27s-.07-9.79-.09-14.68a4.56,4.56,0,0,1,.15-1.16c1.42-5.42,12-7.07,16.68-7.34a39.75,39.75,0,0,1,7.94.3v65.64H0V123.56l1.88,1.74,1.19,1.1h.35L3,120l-1.34,1.28L0,122.9v-4.2l1.44-1.33L0,116.17v-3.6l1.34,1.09,1.32,1.08-.32-4.91-1.16,1-1.18,1v-3.48l.83-.68L0,107v-3.08l.91.67,1.14.82-.24-3.66-1,.77-.78.58v-3l.33-.24L0,99.68V97l.57.38,1,.65-.18-2.78-.91.62L0,96.16V91.24l.29.17.88.53L1,89.83l-1,.63v-4l.84.46L.73,85.3,0,85.71V79.55l6.56,1v2H3.39a15.7,15.7,0,0,0,0,1.68l0,.58H2.6L5.33,126.4h6.73V131h1.06V100.89h1l2.26-40H15.21V58.06h10v2.85H24l1.51,26.55h2.41a8.4,8.4,0,0,1,8.44,8.32v5.11h1V99.3a5.84,5.84,0,0,1,5.86-5.77h2.38a8.44,8.44,0,0,1,8.12-6.07h8.09c1.17-4,6.27-5.71,10.08-6.21V79.5c0-.64.69-1,1.27-1h4.07c.59,0,1.27.36,1.27,1v1.74c4.35.59,10.32,2.73,10.32,7.89V141.9H91V89.13c0-5.16,6-7.3,10.32-7.89V79.5c0-.64.68-1,1.27-1h4.07c.58,0,1.27.36,1.27,1v1.74c4.34.59,10.32,2.73,10.32,7.89V141.9h2.26V89.13c0-5.16,6-7.3,10.31-7.89V79.5c0-.64.69-1,1.27-1h4.07c.59,0,1.27.36,1.27,1v1.74c4.35.59,10.32,2.73,10.32,7.89v25.36h8.46a8.41,8.41,0,0,1,8.42,7.84h1a8.39,8.39,0,0,1,8.43,8.31v5.09L184.63,134a.77.77,0,0,1,.65-.78l.69-.11h0l1.42-6.77a.75.75,0,0,1,.62-.57.78.78,0,0,1,.79.32,24.19,24.19,0,0,1,2.88,17.1c0,.12,0,.12,0,.16V148h0v-2.38a.79.79,0,0,1,.79-.77h6.41a.78.78,0,0,1,.79.77v2.26h3a.59.59,0,0,1,.46.21l.75-8.57v-1.75l.13.3.18-2-5.74,3.14a.82.82,0,0,1-.36,1.05l-.68.37-.05,0,.24,1.67a.53.53,0,0,1-.27.53.53.53,0,0,1-.6,0,11.23,11.23,0,0,1-3.95-7,.55.55,0,0,1,.29-.52.57.57,0,0,1,.6,0l1.32,1.09.05,0,.68-.38a.85.85,0,0,1,1.09.26l19.64-10.77a.81.81,0,0,1,.36-1l.67-.37.05,0-1.09-7.68a.8.8,0,0,1,.42-.8.82.82,0,0,1,.91.05,27.26,27.26,0,0,1,9.52,16.9.74.74,0,0,1-.25.64v4.42a.63.63,0,0,1,.44.64v4.33a.63.63,0,0,1-.44.64v.11a2.28,2.28,0,0,1,0,3.88v1.21l.13.47h1.53v-7.09a1,1,0,0,1,1-1h9.32a1,1,0,0,1,1,1v3.44h4.58a.72.72,0,0,1,.72.7v.65l1.2-13.65v-.79l.06,0,.5-5.67h1.77a2.72,2.72,0,0,1-.38-1.4v0L235.89,124v0a1,1,0,0,1-1.14.94l-1.12-.1a.58.58,0,0,1-.19,0l-1.15,2.31a.65.65,0,0,1-1.17-.08,16,16,0,0,1,1-11.46.59.59,0,0,1,.61-.31.6.6,0,0,1,.55.43l.72,2.47h.19l1.12.1a1.05,1.05,0,0,1,1,1.13v0l32.83,2.88v0a1,1,0,0,1,1.14-.94l1.13.1.17,0,5.1-10.22a1,1,0,0,1,1-.53,1,1,0,0,1,.92.67c2.7,8.3,1.66,20-2.45,27.74v2.29h0a.71.71,0,0,1,.63.78v6.3a.71.71,0,0,1-.63.78h0v3.26h2.49l0-1.23,0-.08c.28-.51.55-1,.86-1.53l.08-.13c0-.57,0-1.14,0-1.72v-.09l0-.08c1.18-2.11,2.38-4.19,3.54-6.3l.13-.23.15,0v-.1a.53.53,0,0,1-.2-.42c0-.39-.12-.73.12-1a.59.59,0,0,1-.17-.39c0-.38-.11-.72.11-1a.59.59,0,0,1-.15-.37c0-.37-.13-.74.11-1,0-.18,0-.35,0-.52v0c.12-1,2.52-1.1,2.63-.05,0,.17,0,.34,0,.51.31.26.25.6.27,1a.62.62,0,0,1-.15.4c.23.25.18.57.19,1a.53.53,0,0,1-.17.41c.25.26.2.58.21,1a.54.54,0,0,1-.22.46c0,.2,0,.39,0,.58l.63.11.17,0,.07.15.81,1.56H288c-.06-1.77-.11-3.54-.17-5.31v-.34h.35l1,0c0-.49,0-1-.05-1.47V136h.35l12.6-.46h.21l.11.18c.31.55.63,1.1,1,1.65h.36l.1.16c.8,1.19,1.59,2.38,2.38,3.58l.06.08v.1c0,1.12.06,2.25.1,3.38l4.89-.09c0-.28,0-.55,0-.82v-.12l.07-.09c.49-.7,1-1.42,1.45-2.13l.11-.14H313l5.62-.14c0-.78-.09-1.57-.11-2.35a.68.68,0,0,1,.61-.73l.95,0a.65.65,0,0,1,.65.7c0,.78.05,1.57.07,2.35h.2l-.06-2.36a.7.7,0,0,1,.61-.74l.95,0a.66.66,0,0,1,.65.71l.06,2.36.79,0h.35v.35c0,.55,0,1.1,0,1.65l6.31-.13,0-1.44v-.35h1.09c0-.24,0-.48,0-.72a1,1,0,0,1-.54-.82c0-.53,0-1.06,0-1.59v-.06a1.25,1.25,0,0,1,.5-.8c0-.12,0-.24,0-.36ZM0,78.33l1.67-3.81V69.6H0v8.73Zm517.15,47.55a3.12,3.12,0,0,1-.66.26,2.29,2.29,0,0,1,.67.22c0-.16,0-.32,0-.47ZM190.64,146.56V143.7a.71.71,0,0,1-.36-.3l-3.56-6h0l-.69.11a.77.77,0,0,1-.87-.53l-9.26,1.51s0,.08,0,.12a2,2,0,0,1-.15.74h.8l.31,3.49.05,0v.59l.81,9.16h1.36v-2.22H189l-.28-1a1.67,1.67,0,0,1-.63-1.31,1.7,1.7,0,0,1,1.71-1.69,1.72,1.72,0,0,1,.84.22Zm-15.08,6.05-.07-.85h-1.35v.85Zm-1.42-2.13h.17l-.17-.11v.11Zm0-1.88.77-.54h-.77v.54Zm0-1.82h0Zm0-1.87.7-.55h-.7v.55Zm0-3.63.39-.35,0-.28h-.37v.63Zm-14,.67V126.79h-.25a3.9,3.9,0,0,0-3.91,3.85v5.69a8.4,8.4,0,0,1,4.16,5.62Zm4.52,6.25h1.7a.74.74,0,0,1,.74.73v2h2.49V139.57l-4.24.69a.77.77,0,0,1-.65.78h0v7.15Zm0-11.25a.65.65,0,0,1,.18.3l4.75-.78v-5.83a3.89,3.89,0,0,0-3.9-3.85h-1V137Zm26,1.24-2.38-1.12,2.18,3.64a.08.08,0,0,0,.08,0l.06,0,.06-.65v-1.85ZM187.57,133l1.92-1.83a21.38,21.38,0,0,0-.91-2.34h-.06l-.08,0-.87,4.15Zm.28,2.05,2.54.91a.15.15,0,0,0,.12,0,18.8,18.8,0,0,0-.45-2.56.1.1,0,0,0-.1,0L187.85,135ZM175,145.7l-.17.14.2.16,0-.3Zm.31,3.51-.38.27.43.31-.05-.58Zm-24.88,3.4h1.09V139.73h-3.68v2.17h2.59v10.71Zm30.05,0h.22l.69-.61.63-.56-1.54,0v1.14Zm1.83,0h.63V152l-.63.57Zm1.84-.07.5-.58.51-.57-1,0v1.13Zm1.29.07h.38v-.45l-.38.45Zm1.47-.3.23-.34.43-.63-.66,0v.95Zm1,.3H188v-.27l-.18.26Zm32.36,0h4.29V150a1.09,1.09,0,0,1,.48-.91l-.54-2a2.28,2.28,0,0,1-.9-1.82,2.31,2.31,0,0,1,2.19-2.29.8.8,0,0,1-.11-.4v-4.33a.63.63,0,0,1,.44-.64v-4.31l0,0-6-5,0,0-.68.37a.84.84,0,0,1-1.09-.25l-8.85,4.85a2,2,0,0,1,0,1.71h.92l.3,3.47.09-.13v1.15l1,10.89h.64a.88.88,0,0,1,.88.86v1h7.11v.38Zm49.67,0H275v-3.26h0c-.41,0-.63-.42-.63-.78v-6.3c0-.36.22-.78.63-.78h0v-1.68a1,1,0,0,1-.78-.68L271,128.18h-.18l-1.12-.1a1,1,0,0,1-1-1.12v0l-14.49-1.28a2.67,2.67,0,0,1-.33.92h1.46l.48,5.54.08-.08V133l1.4,16h1.08a1.11,1.11,0,0,1,1.11,1.1v1.54h10.34v1.05Zm-64.58-2.2h4l-.14-1.64h-3.68l-.15,1.64Zm13.85-26.91,1.36-2.77s0,0,0,0a24.85,24.85,0,0,0-1.85-2.12s-.09,0-.12,0-.09.07-.09.11l.69,4.82Zm2.17,3.85,3.78,3.12a.17.17,0,0,0,.14,0s.08-.06.07-.1a24.22,24.22,0,0,0-.85-2.66,0,0,0,0,0,0,0l-3.1-.32Zm-1.14-1.89h3.08a.17.17,0,0,0,.14-.07s0,0,0-.06A27.53,27.53,0,0,0,222,122.8s0,0-.06,0a.16.16,0,0,0-.14.08l-1.61,2.59Zm-13.8,12.77,0,0,0,0v.07Zm.91-.81.78-.7,0-.37h-1.5l0,.37.78.7Zm.91.74,0,0,0,0v-.07Zm-.91.81-.2.17h.4l-.2-.17ZM206,142.46l.34-.27L206,142l-.05.5Zm1.29-1,1.12-.89v-.06h-2.22v.06l1.12.89Zm1.24.52-.29.23.34.27-.05-.5Zm-1.24,1-.42.33h.84l-.42-.33Zm-1.66,3.74.61-.43-.54-.38-.07.81Zm1.66-1.16,1.28-.9H206l1.28.9Zm1.58.35-.53.38.61.43-.08-.81ZM207.27,147l-.61.43h1.22l-.61-.43Zm-55.8-11.72v-4.63a8.4,8.4,0,0,1,8.44-8.31h.21a3.9,3.9,0,0,0-3.87-3.38h-8.46v16.32Zm-93-4.31h3.06v-3.62H59.81a1.33,1.33,0,0,0-1.33,1.31V131Zm3.06-8.09V91.93H53.68a3.89,3.89,0,0,0-3.91,3.85v5.11H51.7V131H54v-2.31a5.83,5.83,0,0,1,5.85-5.78Zm-29.71-22V95.78a3.89,3.89,0,0,0-3.91-3.85H25.76l.51,9Zm13.41,0V98H43.18a1.32,1.32,0,0,0-1.33,1.3v1.59Zm201.35,48h.15l.23-2.7h-.14l-.24,2.7Zm1.59,0h6.11l-.23-2.7h-5.64l-.24,2.7Zm7.56,0h.14l-.23-2.7h-.15l.24,2.7Zm17.75-26.66,4.38-2.48a.21.21,0,0,0,.12-.19,34.38,34.38,0,0,0-.46-4,.33.33,0,0,0-.29-.23.37.37,0,0,0-.36.15l-3.39,6.8Zm-.5,5.55,2.12,7.28a.35.35,0,0,0,.32.21.34.34,0,0,0,.33-.17,35.86,35.86,0,0,0,1.18-3.91.2.2,0,0,0-.09-.21l-3.86-3.2Zm.17-2.78,3.93,2.65a.41.41,0,0,0,.37,0,.25.25,0,0,0,.18-.19c.19-1.39.32-2.8.38-4.21a.24.24,0,0,0-.15-.21.37.37,0,0,0-.37,0L273.16,125ZM254,129.43l.27,3.11h.14l-.28-3.23-.13.12Zm.49,5.67.31,3.46H255l-.31-3.57-.14.11Zm.52,5.84.32,3.63h.14l-.33-3.73-.13.1Zm-6.59-11.51-.13-.12-.29,3.23h.15l.27-3.11Zm-.5,5.67-.13-.11-.32,3.57h.15l.3-3.46Zm-.51,5.84-.14-.1-.33,3.73h.15l.32-3.63Zm2.28-9.5.49-.44-.42-.38-.07.82Zm1.52-1.36,1.3-1.16-.07-.75H250l-.07.76,1.3,1.15Zm1.45.54-.43.38.5.44-.07-.82Zm-1.45,1.29-.7.63h1.4l-.7-.63Zm-2.06,5.65.93-.74-.81-.65-.12,1.39Zm2.06-1.63L253,134.5l0-.31h-3.52l0,.31,1.79,1.43Zm1.93.24-.81.65.93.74-.12-1.39Zm-1.93,1.54-1.06.85h2.12l-1.06-.85Zm-2.6,6,1.35-.94-1.19-.84-.16,1.78Zm2.6-1.82,2.29-1.6v-.05H249v.05l2.3,1.6Zm2.44,0-1.19.84,1.34.94-.15-1.78Zm-2.44,1.71-1.39,1h2.77l-1.38-1Zm123.43-7.36c0-1.57,0-3.14,0-4.71q-12.12,5.17-24.25,10.35l.22.23.1.09v.14c0,1.66.08,3.32.11,5l2.15.19,0-1.34a.74.74,0,0,1-.21-1.2.72.72,0,0,1-.05-1,.73.73,0,0,1,.18-1.18v-.32l0-.05c.16-.59,2-.8,3.1-.56a.83.83,0,0,1,.46-.78c0-.12,0-.24,0-.36v-.11c.23-.66,2.68-.88,3.9-.54a1,1,0,0,1,.55-.91c0-.16,0-.32,0-.48v-.09c.28-1,5.05-1.15,5.36-.15l0,0V139a1,1,0,0,1,.5.86l1.13-.44V139l.22-.09,6.54-2.64Zm-63.46,9.36-4.89.09v.09l4.89-.08v-.1Zm0,1.11-4.89.08.09,3.17,4.89,0-.09-3.21Zm55.31-3.18a.56.56,0,0,1-.17.09l0,1.46,1.68.22,0-1.51-1.51-.26Zm11.62-9.83c0,.35,0,.7.07,1.06l1.35-.55-1.42-.51Zm120.61,2.93,5-.72c0-1.15,0-2.3,0-3.45l-.73-.26-4.35.8c0,1.21.07,2.42.09,3.63Zm29.65,3.26,0-3.38-.35-.11c0,1.14,0,2.29,0,3.44l.34,0Zm-.4-5.57.18-.07-.18-.07v.14Zm-11.38-.23a.81.81,0,0,1-.28-.23v.25l.28,0Zm-.29-1.74a.54.54,0,0,1,.15-.22l-.16,0a1.09,1.09,0,0,0,0,.18Zm-40.92-14.44c0-1,0-1.94,0-2.91l-4.32,1.78,4.3,1.13Zm-10-1.46s0,.08,0,.12c3.39-1.42,6.76-2.88,10.11-4.41,0-.11,0-.21,0-.3l-10.11,4.59Zm50.9,12.69a3.07,3.07,0,0,1,.5.13,1.56,1.56,0,0,1-.34-.18Z"/><path class="cls-4" d="M176.23,139.7l0,.39.43-.39Zm518.88,34.08H0V126H.56L0,125.43V119.5l1-1,2.19-2.06-2.3-1.94L0,113.75v-5l.75-.61,1.9-1.58c-.67-.49-1.33-1-2-1.49l-.66-.5V100.4L.52,100l1.66-1.23L.45,97.61,0,97.3V93.61l.35-.23,1.45-1L.29,91.47,0,91.3V89.68l1.37.83,1.44.88L2.59,88,0,89.62V88l1.48-.9L0,86.28V84.87l2.48,1.38L2.3,83.44,0,84.75v-1.4l.37-.2H0V78.36l7.46,1.15v1.35H4.28c0,.71,0,1.36,0,2.08l0,.21H3.49L6.25,126h6.69v4.61H14.7V100.15h1L18,59H16.79V56.81h9.28V59H24.85l1.54,27.57h2.74a8.09,8.09,0,0,1,8.07,8.07v5.52h1.66v-2a5.52,5.52,0,0,1,5.5-5.5H47a8.11,8.11,0,0,1,7.84-6.14h8.34c.87-3.63,5.22-5.74,10.15-6.33V78.16c0-.37.41-.67.92-.67h4.06c.51,0,.92.3.92.67v2.07c5.51.66,10.3,3.22,10.3,7.67v53.76h3V87.9c0-4.45,4.79-7,10.3-7.68V78.16c0-.37.42-.67.92-.67h4.06c.51,0,.92.3.92.67v2.06c5.51.67,10.3,3.23,10.3,7.68v53.76h3V87.9c0-4.45,4.8-7,10.3-7.68V78.16c0-.37.42-.67.92-.67h4.06c.51,0,.93.3.93.67v2.06c5.5.67,10.3,3.23,10.3,7.68v26h8.78a8.08,8.08,0,0,1,8.07,7.93h1.38a8.1,8.1,0,0,1,8.07,8.07v5.56L186,133.61l0-.23a.43.43,0,0,1,.35-.5l.69-.11a.39.39,0,0,1,.24,0l1.48-7.16a.39.39,0,0,1,.34-.31.42.42,0,0,1,.44.17,24.45,24.45,0,0,1,2.82,17,.26.26,0,0,1-.06.13v5.16h.22c.09,0,.17.13.17.28v2.18H193V145.1a.44.44,0,0,1,.44-.44h6.4a.44.44,0,0,1,.44.44v2.63h3.39a.26.26,0,0,1,.25.26v2.29h.32l1-11.35v0h0l.36-4.08-6.6,3.67.13.23a.48.48,0,0,1-.19.66l-.67.37a.48.48,0,0,1-.28.06l.28,2a.17.17,0,0,1-.1.18.18.18,0,0,1-.21,0,11.06,11.06,0,0,1-3.8-6.84.18.18,0,0,1,.11-.18.18.18,0,0,1,.21,0l1.56,1.3a.46.46,0,0,1,.19-.2l.68-.38a.49.49,0,0,1,.66.19l.13.23,20.2-11.23-.13-.23a.49.49,0,0,1,.19-.66l.68-.37a.4.4,0,0,1,.26-.06l-1.13-8.1A.46.46,0,0,1,218,115a.47.47,0,0,1,.52,0,27.27,27.27,0,0,1,9.37,16.86.47.47,0,0,1-.25.45v5h.24c.11,0,.2.14.2.31V142c0,.17-.09.31-.2.31h-.24V143a2,2,0,0,1,0,3.53V148l.21.78H230v-7.52a.63.63,0,0,1,.63-.64h9.31a.63.63,0,0,1,.63.64v3.82h4.93a.36.36,0,0,1,.36.37v3.33h.47l1.43-16.49v-.06h0l.53-6.08h2.13a2.56,2.56,0,0,1-.71-1.77,1.88,1.88,0,0,1,0-.34l-13.27-1.18,0,.39a.71.71,0,0,1-.76.64l-1.12-.11a.75.75,0,0,1-.38-.15l-1.3,2.66a.28.28,0,0,1-.27.14.29.29,0,0,1-.25-.18,16.11,16.11,0,0,1,1-11.34.29.29,0,0,1,.28-.13.28.28,0,0,1,.24.19l.81,2.84a.62.62,0,0,1,.4-.08l1.12.09a.71.71,0,0,1,.64.77l0,.38,33.46,3,0-.38a.7.7,0,0,1,.76-.64l1.12.1a.68.68,0,0,1,.37.15l5.24-10.66a.66.66,0,0,1,.67-.34.67.67,0,0,1,.61.44c2.68,8.32,1.63,20.14-2.46,27.88v2.76h.35c.16,0,.29.19.29.44v6.37c0,.25-.13.45-.29.45h-.35v4h3.19l-.05-1.51c.27-.5.54-1,.85-1.53h.14l-.06-2.07c1.16-2.11,2.37-4.24,3.54-6.38a2.12,2.12,0,0,0,.33,0c0-.23,0-.45,0-.69-.15-.07-.2-.15-.2-.25,0-.6-.12-.71.16-.87a2.81,2.81,0,0,0,0-.29c-.14-.07-.19-.16-.19-.24,0-.62-.12-.73.16-.89,0-.08,0-.16,0-.24s-.19-.16-.19-.25c0-.61-.12-.72.11-.88,0-.23,0-.45,0-.69h0c.07-.62,1.87-.69,1.94-.07h0c0,.23,0,.46,0,.69.29.15.24.24.26.87,0,.11-.09.2-.23.29a1.48,1.48,0,0,1,0,.21c.29.16.24.24.26.88,0,.1-.08.21-.23.29a2.18,2.18,0,0,1,0,.25c.29.16.25.24.27.88,0,.11-.09.2-.23.29l0,1,.9.16.91,1.78.85,0c-.05-1.91-.11-3.81-.17-5.72l1.32,0c0-.61,0-1.22-.05-1.83l12.58-.47,1.05,1.85h.37l2.38,3.62c0,1.25.07,2.51.1,3.77l5.58-.11,0-1.18c.5-.72.95-1.43,1.45-2.15l6-.15c0-.91-.09-1.81-.12-2.72a.36.36,0,0,1,.27-.39l.95,0c.19,0,.29.16.29.37,0,.91.05,1.82.08,2.73l.89,0c0-.91,0-1.82-.07-2.74,0-.2.13-.38.27-.38l.95,0c.19,0,.29.16.29.37,0,.92,0,1.83.08,2.74l1.13,0c0,.68,0,1.35.05,2l7-.14c0-.61,0-1.22-.05-1.82l1.09,0,0-1.26c-.34-.19-.53-.4-.54-.65,0-.53,0-1.07,0-1.6a1.06,1.06,0,0,1,.51-.7c0-.24,0-.49,0-.73-.34-.18-.53-.4-.54-.64,0-.54,0-1.08,0-1.62,0-.27.22-.5.45-.69,0-.21,0-.41,0-.62a.88.88,0,0,1-.49-.64c0-.55,0-1.08-.09-1.62a1.12,1.12,0,0,1,.5-.7c0-.59,0-1.19,0-1.79h.05c0-.69,1.24-1.29,2.71-1.37s2.71.41,2.82,1.1h0a.28.28,0,0,1,0,.09c0,.57,0,1.14,0,1.7a1.11,1.11,0,0,1,.68.67c0,.54,0,1.09,0,1.64,0,.27-.23.53-.65.77l0,.54c.38.19.62.4.67.67,0,.54,0,1.09,0,1.63,0,.28-.23.54-.65.77,0,.22,0,.43,0,.65a1.11,1.11,0,0,1,.68.67c0,.55,0,1.09,0,1.63,0,.28-.23.55-.6.77l0,1.19,1.37,0L339.6,138l7.7-.23c1,1.46.83.81.87,2.69l1.56,0a1,1,0,0,0,.2.28c8.29-3.59,16.82-7.29,25.69-11.11,0-.78,0-1.55,0-2.33a.45.45,0,0,0,0,.22c-.41-.26-.73-1.68,1.19-1.82s1.69,1.43,1.36,1.67c0,.78.08,1.56.15,2.34,1.67.78,3.44,1.56,5.21,2.34,0-3.23,0-6.48,0-9.72-.51-.29-1-2,1.34-2.22s1.79,1.83,1.5,2c.22,3.82.39,7.66.61,11.49,1.1.51,2.25,1,3.39,1.52-.06-.57-.07-1.16-.08-1.75l.52-.19c0-.73,0-1.47-.05-2.21l.61-.24a3.57,3.57,0,0,1-.48-.28c1.07-1.59.82-1.26,2.71-2,.34.26.72.51,1.11.76,0-3.13,0-6.27,0-9.41s0-6.28.05-9.42c-.06-1.3,4.27-1.63,4.31-.36l1,20,3.53-1.18c.38.4.82.8,1.25,1.19.37-.51.74-1,1.11-1.53.24,0,.43.06.71.08,0-.44,0-.89,0-1.34-.82-.36-.58-1.88,0-2.2,0-.18,0-.37,0-.55-.85-.39-.53-1.91-.09-2.2,0-.16,0-.31,0-.47-1-.53-.38-2,0-2.21,0-.44,0-.88,0-1.33h0c.16-1.22,4.52-1.48,4.73-.27h0c0,.44,0,.88,0,1.33.77.28.63.45.65,1.7,0,.21-.23.41-.56.58,0,.14,0,.28,0,.41.71.29.57.45.6,1.71,0,.2-.23.4-.56.57,0,.17,0,.33,0,.5.71.29.57.45.6,1.7,0,.21-.19.42-.56.59,0,.68,0,1.36.08,2,.62.08,1.28.16,2,.23,0-.89,0-1.79,0-2.69l13.86-14.76,6.18,1.34.21-34.09c0-2.07,7.9-3.21,7.92-.85.28,5.44.53,10.86.78,16.28s.59,10.83.86,16.24c.66-.5,1.31-1,2-1.53,4.26,1,2.9.14,5.3,2.9a9.16,9.16,0,0,0-.94.59l1.14.29c0,1.31.09,2.61.11,3.92.28.08.62.15,1,.23,0,1,0,2.07,0,3.11L458.5,117l.23-20.74c-.79-.49-.52-1.62-.51-2.4,0-1.8,6.73-2.38,6.92-.62.1.92.3,2.4-.72,3,.27,5.91.68,11.38.95,17.28l11-5.43c0-1.47,0-2.93,0-4.4-.79-.35-.51-1.39-.5-2.06,0-1.56,6.55-2,6.73-.51.09.82.27,1.73-.59,2.23a1.07,1.07,0,0,1-.05-.4c.21,5.43.51,10.85.82,16.27,5.22,1.38,10.45,2.78,15.77,4.21,0,.31,0,.61,0,.91,1.94.48,3.84,1,5.79,1.43a1.93,1.93,0,0,1,0-.24c-.66-.13-1.09-.3-1.09-.5,0-1.1-.32-1.51,1.07-1.92a14,14,0,0,0-.07-1.44h0c.46-1.35,11.34-1.87,11.83-.54h0c0,.5,0,1,.06,1.47,1.69.32,1.38.54,1.39,1.85,0,.23-.51.47-1.36.67v.45c1,.17,1.38.23,1.38.78l.24-.07c0-.41,0-.81,0-1.22h0c.37-1.13,9.64-1.51,10-.4h0c0,.41,0,.82,0,1.23,1.44.22,1.18.51,1.19,1.56,0,.2-.42.39-1.18.56,0,.12,0,.24,0,.37a2.9,2.9,0,0,1,1,.3v-.45h0c.37-1,8.83-1.31,9.22-.32h0c0,.36,0,.72,0,1.09.62.09,1,.22,1.05.39.13.92.18,1.2-1,1.49v.33c.62.09,1,.23,1.05.39.14,1,.25,1.19-1,1.48v.4c1.28.21,1.1.43,1.1,1.38,0,.18-.37.34-1.08.48,0,1.42.07,2.83.09,4.25l6.89-.6c1.52.3,3.13.59,4.69.89,3-3.36,5.9-6.73,9-10.15.28,0,.57.06.95.08,0-.44,0-.89,0-1.34-.38-.13-.57-.3-.57-.47,0-.68-.28-1.37.51-1.73,0-.18,0-.36,0-.55-.33-.13-.52-.29-.52-.47,0-.68-.28-1.37.51-1.73,0-.16,0-.31,0-.47-.33-.13-.52-.29-.52-.47,0-.67-.31-1.41.5-1.74,0-.44,0-.88,0-1.33h0c.1-1.14,5.65-1.5,5.77-.25h0l.06,1.32q.64.19.72.48c.1.83.25,1.42-.7,1.81v.41c1,.31.77.88.77,1.71,0,.2-.32.41-.75.57v.49c.43.13.72.3.77.49.1.83.25,1.43-.75,1.79,0,.69,0,1.36.07,2l5.44.49c.71-.52,1.5-1.05,2.31-1.59,8.94.91,18.22,1.84,27.63,2.78,0,2.87.09,5.74.1,8.6,7.81,1.6,15.85,3.22,23.9,4.88l1.56,0-.32-35.11c-.05-11.1,36.49-13.5,36.53-1.92l.22,36.65,7.89-.08c0-4.92,0-9.86,0-14.79s-.08-9.9-.1-14.86c-.05-6.43,14.36-9.46,24.38-7.94v66.28ZM191.5,150.28v-1.66a1.38,1.38,0,0,1-.42.21l.39,1.45Zm.4-3.43a1.36,1.36,0,0,0-2.55.67,1.39,1.39,0,0,0,.59,1.12l.43,1.59h-3.55l-6.48,0v2.24h-2l-.83-9.59v0h0l-.32-3.74H176a1.54,1.54,0,0,0,.45-1.09,1.4,1.4,0,0,0-.06-.41l9.92-1.65,0,.24a.44.44,0,0,0,.5.36l.68-.12a.39.39,0,0,0,.22-.11l3.71,6.3a.42.42,0,0,0,.41.19v4Zm-14,5.65-.14-1.55h-.51l.13,1.55Zm-1,0-.13-1.55h-2v1.55Zm-2.14-2.15h1.6l-1.52-1.08-.08.06v1Zm0-1.7.08.06,1.63-1.17,0-.34h-1.68v1.45Zm0-2.05h1.34l-1.26-1-.08.06v.95Zm0-1.64.08.06,1.32-1.06,0-.51h-1.36V145Zm0-2.11h1.06l-1-.89-.08.08v.81Zm0-1.53.08.08,1-.93-.07-.77h-1v1.62ZM161.22,152.5v-4.07a.39.39,0,0,1,.25-.37V125.67h-.59a4.26,4.26,0,0,0-4.25,4.25v6a8.09,8.09,0,0,1,4.31,7.14v9.48ZM165.3,148h2a.39.39,0,0,1,.39.39v2.35h3a.25.25,0,0,1,.15.06v-12.3l-5,.83,0,.24a.42.42,0,0,1-.35.49l-.32.06V148Zm0-11.58a.45.45,0,0,1,.2.31l0,.23,5.37-.89v-6.19a4.26,4.26,0,0,0-4.24-4.25H165.3v10.78Zm26.6,3v-2a.31.31,0,0,0-.17-.15l-3.43-1.64,2.76,4.67a.4.4,0,0,0,.44.17.39.39,0,0,0,.34-.34l.06-.68Zm-4-6.11,2.72-2.66a.34.34,0,0,0,.09-.35,21.11,21.11,0,0,0-.91-2.4.4.4,0,0,0-.43-.21.41.41,0,0,0-.37.31l-1.1,5.31Zm.15,1.15,3.12,1.13a.46.46,0,0,0,.41-.06.34.34,0,0,0,.17-.34,25.54,25.54,0,0,0-.43-2.62.37.37,0,0,0-.27-.27.43.43,0,0,0-.41.09l-2.59,2.07Zm-11.76,6.13.19,2.24H177l-.23-2.67-.48.43Zm.25,2.84v.16l.2-.16Zm.06.69.21,2.46h.52l-.25-2.85-.48.39Zm.26,3.06v0l.06,0Zm.05.57.23,2.58h.51l-.25-2.93-.49.35ZM175.88,141l-.75.68.88.8-.13-1.48Zm.31,3.49-1,.81,1.17.95-.15-1.76Zm.31,3.58-1.28.92,1.45,1-.17-2ZM151,152.5h1.79V138.77h-4.37v2.89H151V152.5Zm5.61,0h.49V143a4.23,4.23,0,0,0-.49-2V152.5Zm24.38,0h.71l.78-.7,1.33-1.19-2.82,0v1.84Zm1.28,0h1.87v-1.71l-1.24,1.13-.63.58Zm2.39,0h.44l.67-.78,1-1.16-2.12,0v1.91Zm.88,0H187v-1.75l-1,1.19-.48.56Zm1.87,0h.33l.54-.8.8-1.19-1.67,0v2Zm.67,0h1.17v-1.78l-.81,1.23-.36.55Zm1.48,0H190v-1.7a.57.57,0,0,1,.1-.31h-.53v2Zm31.12,0h5v-3a.77.77,0,0,1,.54-.73l-.65-2.42a2,2,0,0,1,1.67-3.52v-.52H227c-.11,0-.2-.14-.2-.31v-4.38c0-.17.09-.31.2-.31h.24v-4.92a.38.38,0,0,1-.18-.09l-6.27-5.23a.44.44,0,0,1-.19.19l-.68.38a.48.48,0,0,1-.66-.19l-.12-.23-9.44,5.25a1.74,1.74,0,0,1-.19,2.21h1.26l.36,4.18h0v0l1,11.35h1a.52.52,0,0,1,.52.52v1.32h7.1v.38Zm49.59,0h5.77v-4h-.36c-.15,0-.28-.2-.28-.45v-6.37c0-.25.13-.44.28-.44h.36v-2.38h-.2a.65.65,0,0,1-.6-.45L272,127a.74.74,0,0,1-.39.08l-1.12-.1a.7.7,0,0,1-.64-.76l0-.39-15.15-1.35a2.52,2.52,0,0,1-.71,1.66h1.82l.53,6.08h0v.06l1.44,16.49h1.39a.76.76,0,0,1,.76.76v1.91h10.33v1.06Zm-60.56-17.15,0,.43.47-.43Zm17.51,11.33v0h0v0Zm-22.54,3.6h.58l.2-2.36h-.57l-.21,2.36Zm1.09,0h4.72l-.2-2.36H206l-.21,2.36Zm5.24,0h.57l-.2-2.36h-.58l.21,2.36Zm-4-15.57a1.64,1.64,0,0,1-.35-.52l-.95.52H207Zm12.79-10.85,1.86-3.82a.36.36,0,0,0,0-.4,22.55,22.55,0,0,0-1.86-2.18.46.46,0,0,0-.54-.07.49.49,0,0,0-.27.47l.84,6Zm1.26,2.27,4.65,3.88a.48.48,0,0,0,.54,0,.43.43,0,0,0,.23-.48,24.92,24.92,0,0,0-.86-2.74.4.4,0,0,0-.33-.24l-4.23-.43ZM220.4,125l3.69,0a.53.53,0,0,0,.42-.21.43.43,0,0,0,.06-.43c-.44-.88-.92-1.75-1.45-2.59a.39.39,0,0,0-.39-.18.55.55,0,0,0-.4.24L220.4,125Zm-10.58,11.35.22,2.51h.58l-.26-3-.54.48Zm.28,3.18v.18l.22-.18Zm.06.77.24,2.75H211l-.28-3.19-.54.44Zm.3,3.42v0l.06,0Zm0,.63.25,2.89h.58l-.28-3.27-.55.38Zm-3.94-9h-.51l.48.43,0-.43Zm-.08,1-.54-.48-.26,3h.58l.22-2.51Zm-.28,3.18H206l.22.18v-.18Zm-.07.77-.54-.44-.27,3.19h.57l.24-2.75Zm-.29,3.42h-.07l.06,0v0Zm-.06.63-.54-.38-.29,3.27h.58l.25-2.89Zm1-5.91,1-.89-.84-.76-.14,1.65Zm1.33-1.21,1.14-1-.07-.86h-2.13l-.08.86,1.14,1Zm1.19-.44-.84.76,1,.89-.15-1.65Zm-1.19,1.07-1.1,1h2.2l-1.1-1Zm-1.7,4.8,1.31-1.06-1.14-.92-.17,2Zm1.7-1.37,1.48-1.2,0-.56h-2.86l0,.56,1.47,1.2Zm1.53-.61-1.14.92,1.31,1-.17-2Zm-1.53,1.24-1.4,1.13h2.81l-1.41-1.13Zm-2.06,4.95,1.62-1.15-1.43-1-.19,2.17Zm2.06-1.47,1.83-1.3,0-.38h-3.58l0,.38,1.82,1.3Zm1.88-.7-1.43,1,1.62,1.15-.19-2.17ZM208.15,146l-1.7,1.21h3.4l-1.7-1.21ZM0,77.6H.61l2-4.56V68.48H0V77.6ZM152.81,135v-5a8.09,8.09,0,0,1,8.07-8.07h.59a4.27,4.27,0,0,0-4.25-4.11h-8.78V135ZM61,126.23a1.67,1.67,0,0,0-1.67,1.67v2.69H63v-4.36ZM63,122.4v-32H54.84a4.27,4.27,0,0,0-4.25,4.25v5.52h1.92v30.44h3V127.9a5.52,5.52,0,0,1,5.5-5.5ZM33.38,100.15V94.63a4.27,4.27,0,0,0-4.25-4.25H26.6l.55,9.77Zm13.38,0V96.53h-2.4a1.67,1.67,0,0,0-1.67,1.67v2ZM5.05,126l-.49-7.59L2.69,120.2c-.77.74-1.52,1.49-2.29,2.22l2.5,2.35L4.19,126ZM0,95.44l1.61,1.08,1.57,1L3,93.45l-1.42,1-1.5,1Zm.09,7c.62.45,1.23.92,1.84,1.37l1.74,1.28L3.37,100l-1.54,1.17L.12,102.48Zm3.77,5.65-1.68,1.44-2,1.67L2.37,113l1.94,1.61-.42-6.48Zm250.45,18.94,0,.63.69-.63ZM247,148.77h.85l.29-3.43h-.84l-.3,3.43Zm1.59,0h6.86l-.29-3.43h-6.27l-.3,3.43Zm7.61,0h.84l-.3-3.43h-.84l.3,3.43Zm17.22-26.47,5.36-3.07a.55.55,0,0,0,.29-.52,34.49,34.49,0,0,0-.46-4.14.72.72,0,0,0-1.3-.17l-3.89,7.9Zm-.33,3.75,2.43,8.47a.68.68,0,0,0,.63.46.67.67,0,0,0,.67-.4,33.94,33.94,0,0,0,1.2-4,.54.54,0,0,0-.21-.55l-4.72-4Zm.1-1.88,4.44,3a.74.74,0,0,0,.68.08.55.55,0,0,0,.41-.46c.2-1.42.32-2.86.38-4.3a.58.58,0,0,0-.32-.53.74.74,0,0,0-.68,0l-4.91,2.2Zm-18.75,4.38.32,3.64h.84l-.38-4.35-.78.71Zm.4,4.61,0,.26.32-.26Zm.1,1.11.35,4h.84l-.4-4.64-.79.63Zm.43,5v.06l.08-.06Zm.08.92.37,4.19h.84l-.41-4.75-.8.56Zm-5.72-13.1H249l.69.63.06-.63Zm-.13,1.48-.78-.71-.38,4.35h.84l.32-3.64Zm-.4,4.61h-.34l.32.26,0-.26Zm-.1,1.11-.78-.63-.41,4.64h.85l.34-4Zm-.43,5h-.09l.09.06v-.06Zm-.08.92-.79-.56-.41,4.75h.84l.36-4.19Zm1.49-8.59,1.43-1.3-1.22-1.11-.21,2.41Zm1.94-1.76,1.66-1.5-.11-1.25h-3.1l-.1,1.25,1.65,1.5Zm1.73-.65-1.22,1.11,1.43,1.3-.21-2.41ZM252,130.74l-1.6,1.45h3.2l-1.6-1.45Zm-2.47,7,1.9-1.53-1.65-1.33-.25,2.86Zm2.47-2,2.15-1.73-.07-.82H250l-.07.82,2.14,1.73Zm2.22-.87-1.65,1.33,1.9,1.53-.25-2.86ZM252,136.63l-2,1.65h4.09L252,136.63Zm-3,7.19,2.36-1.67-2.09-1.48-.27,3.15Zm3-2.13,2.65-1.88,0-.56h-5.21l-.05.56,2.65,1.88Zm2.73-1-2.08,1.48,2.35,1.67-.27-3.15ZM252,142.61l-2.47,1.75h4.94L252,142.61Zm123.54-12.32q-12.94,5.61-25.12,10.87a7.13,7.13,0,0,0,.53.6c.05,1.79.09,3.58.13,5.35l2.84.27c0-.66,0-1.32,0-2-.56-.13-.57-.73,0-.88v-.19a.45.45,0,0,1,0-.89v-.15c-.57-.13-.58-.73,0-.88,0-.17,0-.34,0-.51h0c.14-.47,3.11-.54,3.22-.07h0V142a1.66,1.66,0,0,1,.43-.17c0-.06-.05-.12-.06-.18-.63-.16-.64-.83,0-1,0-.2,0-.4,0-.61h0c.17-.53,3.72-.62,3.87-.09h0c0,.16-.07.6.11.63,0-.25.12-.3.51-.42V140c-.8-.2-.77-1,0-1.24,0-.24,0-.48,0-.72h0c.17-.66,4.47-.79,4.68-.14h0c0,.25,0,.5,0,.74a.62.62,0,0,1,0,1.21v.12c.75-.29,1.5-.6,2.3-.9,0-.15,0-.3,0-.46,2.25-.91,4.45-1.83,6.76-2.77,0-1.83,0-3.68,0-5.52ZM312.24,144.7l-5.58.1c0,.26,0,.53,0,.79l5.58-.09c0-.27,0-.53,0-.8Zm0,1.13-5.58.09c0,1.3.08,2.6.11,3.9l5.58,0c0-1.32-.07-2.62-.11-3.94Zm81.31-17.41h0c-.88.65-1.77,1.31-2.71,2,.94-.65,1.83-1.31,2.71-2ZM367,142.59c0,.08-.18.15-.42.22,0,.68,0,1.35.05,2,.76.1,1.52.21,2.37.31,0-.74,0-1.48-.05-2.22l-1.95-.34Zm-9.82,4.69.38-.09c0-1-.05-2.05-.07-3.08l-.1,0a.69.69,0,0,1-.28.15,1.55,1.55,0,0,0,0,.22c.31.08.56.69,0,.85,0,.66,0,1.32,0,2Zm4.14-3c.38-.1.28-.11.61-.06,0-.43,0-.86,0-1.28a1.17,1.17,0,0,1-.48-.2l-.14,0V143c.45.12.7.79,0,1a2.17,2.17,0,0,1,0,.26Zm19.78-10.77c-.95-.33-1.86-.67-2.77-1,0,.7.08,1.4.14,2.09.85-.36,1.74-.72,2.63-1.08Zm9.25,3.74v-.34c-1.15-.41-2.24-.82-3.34-1.23a1.09,1.09,0,0,0,0,.18c1.09.46,2.19.93,3.33,1.39Zm-12.09-5.89c1.77.73,3.44,1.38,5.16,2a1.57,1.57,0,0,1,0-.48l-5.2-2.12c0,.19,0,.38,0,.56Zm8.69,3.4c1.14.44,2.24.89,3.38,1.38v-.37c-1.15-.46-2.25-.93-3.39-1.39,0,.13,0,.26,0,.38Zm-25.07,6.93c0-.09,0-.18,0-.27l-.28-.07c0,.07-.09.15-.33.23a1.48,1.48,0,0,0,0,.21c.38.1,0,.07.61-.1Zm-4.42,1.41v-.22l-.1,0c0,.24,0,.25-.27.34v.07a.85.85,0,0,1,.37-.17Zm87.72-33.83c1.77,1,3.49,1.93,5.3,2.9l-5.3-2.9Zm58.19,21.87-4.72.88c0,1.46.08,2.91.1,4.36l5.71-.83c0-1.34,0-2.68,0-4l-1-.38Zm25.68,8.54c0-1.38,0-2.74,0-4.1-.52-.11-.81-.24-.81-.39-.06-1-.25-1.14.74-1.4v-.46a1.89,1.89,0,0,1-.76-.29l-.24.07c0,2.14,0,4.28.07,6.41l1,.16ZM518,133.89v-.54c-.62-.12-1-.27-1-.43,0-1.2-.2-1.3,1-1.61,0-.16,0-.33,0-.5a3,3,0,0,1-.38-.07,3.82,3.82,0,0,1-1.22.46l0,2.63a2.92,2.92,0,0,1,1.6.06ZM470.47,116c1.9.52,3.8,1,5.7,1.53,0-1.3,0-2.6.05-3.91L470.47,116ZM452,124.19c2.16-1,4.37-2,6.54-3,0-.11,0-.21,0-.32L452,123.58c0,.21,0,.41,0,.61Zm24.3-12.76c0-.36,0-.71,0-1.07-3.63,1.68-7.25,3.33-10.78,5a4.79,4.79,0,0,0,.06.85c3.57-1.52,7.11-3.06,10.73-4.75Zm-17.74,7.82c0-.22,0-.45,0-.68-2.26,1-4.43,2-6.64,3,0,.22,0,.44,0,.65,2.26-1,4.42-2,6.64-3Zm57.71,9.43c1.57.26.58.39,1.61.1v-.43c-.57-.11-.9-.24-1-.4a4.65,4.65,0,0,1-.66.18v.55ZM528,131a2.75,2.75,0,0,1,1,.3v-.14c-.76-.14-.81-.17-.81-.66l-.19,0V131Z"/></g></g></svg>