<svg xmlns="http://www.w3.org/2000/svg" xmlns:xlink="http://www.w3.org/1999/xlink" viewBox="0 0 695.11 173.78"><defs><style>.cls-1{fill:url(#radial-gradient);}.cls-2{fill:url(#radial-gradient-2);}.cls-3,.cls-4,.cls-5{fill-rule:evenodd;}.cls-3{fill:url(#radial-gradient-3);}.cls-4{fill:url(#linear-gradient);}.cls-5{fill:#fff;}</style><radialGradient id="radial-gradient" cx="350.5" cy="280.53" r="529.13" gradientUnits="userSpaceOnUse"><stop offset="0" stop-color="#fffef8"/><stop offset="0.11" stop-color="#fff"/><stop offset="0.23" stop-color="#fee2cc"/><stop offset="0.33" stop-color="#f7aab1"/><stop offset="0.4" stop-color="#cd839e"/><stop offset="0.53" stop-color="#9a5386"/><stop offset="0.67" stop-color="#6f276f"/><stop offset="0.72" stop-color="#632469"/><stop offset="0.86" stop-color="#21093f"/><stop offset="0.95" stop-color="#0d0f23"/><stop offset="1" stop-color="#05050a"/></radialGradient><radialGradient id="radial-gradient-2" cx="350.5" cy="280.53" r="529.13" gradientUnits="userSpaceOnUse"><stop offset="0" stop-color="#7e8aa2"/><stop offset="0.11" stop-color="#7d8ba7"/><stop offset="0.23" stop-color="#817f8e"/><stop offset="0.33" stop-color="#826780"/><stop offset="0.66" stop-color="#442059"/><stop offset="0.72" stop-color="#3b1c55"/><stop offset="0.82" stop-color="#1e0b41"/><stop offset="0.89" stop-color="#10102d"/><stop offset="0.94" stop-color="#0d0e22"/><stop offset="1" stop-color="#06060c"/></radialGradient><radialGradient id="radial-gradient-3" cx="382.31" cy="191.42" r="385.96" gradientUnits="userSpaceOnUse"><stop offset="0" stop-color="#41496b"/><stop offset="0.39" stop-color="#272c4d"/><stop offset="0.64" stop-color="#16103e"/><stop offset="0.72" stop-color="#130f38"/><stop offset="0.88" stop-color="#0d0e22"/><stop offset="1" stop-color="#07070e"/></radialGradient><linearGradient id="linear-gradient" x1="347.56" y1="27.18" x2="347.56" y2="136.6" gradientUnits="userSpaceOnUse"><stop offset="0" stop-color="#401b51"/><stop offset="0.72" stop-color="#1c0c3f"/><stop offset="1" stop-color="#140f34"/></linearGradient></defs><g id="Layer_2" data-name="Layer 2"><g id="Layer_1-2" data-name="Layer 1"><rect class="cls-1" width="695.11" height="173.78"/><rect class="cls-2" y="137.7" width="695.11" height="36.08"/><path class="cls-3" d="M81.82,173.78l.48-6.92,10.47,1.21,24.73-9.84v-1.92l3.58.22V158c-.63.11-1,.24-1,.39,0,.9-.27,1,1,1.24V160c-.63.11-1,.25-1,.39,0,.9-.27,1,1,1.24v.3c-.63.1-1,.24-1,.39,0,.89-.27,1,1,1.23v1h0c.35.87,8.31.87,8.66,0h0v-1c1-.22.79-.38.79-1.23,0-.13-.28-.25-.79-.36v-.33c1-.22.79-.38.79-1.24,0-.13-.28-.25-.79-.35v-.4c1-.22.79-.37.79-1.23,0-.13-.28-.25-.79-.35v-1l1.36.08,2-1.07,2.26.9,6.54-.75,1,14.58c0,.39,1.83.71,4.08.71s4.11-.31,4.07-.74L152,157l2.05.59,3.64-.48,1.65-.88-1-.23,1.19-.15v-1.64l1-.12v-1.31l6.5,1.22.59,8.56c-.32.08-.5.19-.5.29v.72c.09.38,1.8.57,3.45.55s3.19-.23,3.31-.55v-.72c0-.12-.24-.23-.64-.32l.5-7.27,10.26,1.93.13,1.76c-.29.07-.46.15-.46.24v.6c.08.32,1.65.48,3.15.47s2.91-.2,3-.47v-.6c0-.1-.22-.19-.59-.27l0,.16.14-1.76,55-8,.55.22h3.37v1.28l1.73.89h17.65v-2.17h3.15v1c-.95.17-1.51.38-1.51.61v1.31c.11.22.66.41,1.51.56v.54c-.95.17-1.51.38-1.51.6v1.32c.11.22.66.41,1.51.56v.45c-.95.17-1.51.38-1.51.6v1.32c.11.21.66.41,1.51.56v1.46h0c.22.56,3.06,1,6.54,1s6.32-.44,6.54-1h0V159c.69-.15,1.13-.33,1.19-.55v-1.32c0-.2-.43-.39-1.19-.54V156c.69-.16,1.13-.34,1.19-.56v-1.32c0-.2-.43-.38-1.19-.54V153c.69-.15,1.13-.34,1.19-.56v-1.31c0-.21-.43-.39-1.19-.55v-1h2.53v-1.49h16.88v1.69h2.68v2.28c0,.18.31.32.69.32h2.34c.38,0,.69-.14.69-.32v-2.28H312v2.28c0,.18.32.32.7.32H315c.38,0,.7-.14.7-.32v-2.28h14.88l3.81-1.81v-1H348.9v3.25l5.89,3.17h.93l2.62,1.64h34.18v-1.64h3.64v-5.1h2.42l2.38,1.61,2.46.17V151c-.4.07-.64.16-.64.26,0,.57-.18.64.64.79v.22c-.4.07-.64.16-.64.26,0,.57-.18.64.64.79v.19c-.4.07-.64.15-.64.25,0,.57-.18.64.64.79v.62h0c.22.55,5.33.55,5.55,0h0v-.62c.66-.14.51-.24.51-.79,0-.08-.19-.16-.51-.23v-.21c.66-.15.51-.24.51-.79,0-.08-.19-.17-.51-.23V152c.66-.15.51-.25.51-.79,0-.09-.19-.16-.51-.23v-.62l.87,0,9.51-5c31.26,0,47.66-.24,77.3,0l11.79,4.13v7l20.81,3,1.83-1.28h0l4.19.56v1.73c-.34.13-.54.29-.54.47v1c0,.16.24.32.54.44v.41c-.34.14-.54.3-.54.48v1c0,.17.24.32.54.44v.35c-.34.13-.54.3-.54.47v1c0,.17.24.32.54.44v1.14h0c.08.44,1.1.78,2.36.78s2.29-.34,2.37-.78h0v-1.14c.25-.12.41-.27.44-.44v-1c0-.15-.16-.3-.44-.42v-.4c.25-.12.41-.26.44-.44v-1c0-.16-.16-.31-.44-.43v-.47c.25-.12.41-.26.44-.43v-1c0-.16-.16-.3-.44-.43v-1.14l.74.09,7.42-8.55,3.89.84,5.88-.4v3.75c-.57.11-.9.25-.9.4v.87c.06.14.39.27.9.37v.36c-.57.11-.9.25-.9.4v.87c.06.15.39.28.9.38v.29c-.57.12-.9.25-.9.41v.87c.06.14.39.27.9.37v1h0c.31.87,7.55.87,7.87,0h0v-.41a2.89,2.89,0,0,0,.91.3V162c-.65.13-1,.28-1,.46v1c.08.16.46.31,1,.42V165h0c.36,1,8.65,1,9,0h0v-1.11l.19-.05V164c.09.2.55.37,1.25.52V165c-.79.15-1.25.34-1.25.55v1.21c.09.2.55.38,1.25.52v1.34h0c.43,1.22,10.48,1.22,10.91,0h0v-1.34c.58-.15,1-.31,1-.52v-1.21c0-.19-.36-.35-1-.5v-.22l5.39,1.54v.84l15.25,4.66.09,1.94h28.52l3.52-1.42v1.42h37.74l7-6v-2.84l2.46.32v2.16c-.43.16-.69.36-.69.58,0,1.33-.18,1.49.69,1.84v.52c-.43.16-.69.37-.69.58,0,1.33-.18,1.49.69,1.84v.43c-.43.16-.69.37-.69.59h7.19c0-.2-.2-.38-.54-.53v-.5c.71-.33.54-.56.54-1.83,0-.19-.2-.37-.54-.53v-.58c.71-.33.54-.56.54-1.83,0-.19-.2-.37-.54-.53V166l.93.13.11-.14V138.5H0v21.69l5.62.79.79,10.44,0-.27c-.59.12-.94.27-.94.44v1c.19.43,2.47.73,4.85.75s4.91-.24,5-.75v-1c0-.14-.26-.28-.73-.39l.22-2.83,16.41-3.07.58,8.48h9.44l.72-10.5,10.41-1.95v2.09l1.66.19v2.63l1.9.24-1.55.36L57,168.26l5.83.76,3.27-.94.4,5.7Zm507.25-13.86a2.22,2.22,0,0,0-1-.37v-3.73l5.39-.63v4.06l-4.44.67Zm-23.25-8.36.91.16v5.74l-.22,0a1.47,1.47,0,0,0-.69-.28v-.4c.91-.22.72-.32.72-1.24,0-.14-.26-.26-.72-.36v-3.67Zm9.93,5.45a2.64,2.64,0,0,0,1.44.1v2.38a3.26,3.26,0,0,0-1.15.38l-.29-.07v-.46c1-.25.83-.34.83-1.42,0-.16-.31-.3-.83-.41V157Zm65.14,11.49v.6l-7,2.34v-.31l7-2.63Zm-7.08,4.56c2.35-.84,4.71-1.7,7.08-2.62v.65l-7.1,2.65,0-.68Zm-56.62-11.28v.49l-.62.15c0-.15-.31-.28-.82-.4v-.39c.93-.22,0-.14,1.44.15Zm-10.46-2.43v.4l-.19,0c0-.44,0-.46-.72-.62v-.12a3.17,3.17,0,0,0,.91.3Zm-377.22-2.61.31-4.19,13.87-2v-.36l4.89-.65v.09c-.57.07-.9.14-.9.22v.51a2,2,0,0,0,.9.21v.57h0c.4.51,9.53.51,9.92,0h0v-.56a3.42,3.42,0,0,0,1.14-.22v-.51c0-.09-.42-.17-1.14-.24v-.17a3.16,3.16,0,0,0,1.14-.22v-.09h.17v.47h0c.32.42,7.86.42,8.18,0h0v-.46A2.49,2.49,0,0,0,229,149v-.43c0-.07-.35-.13-.94-.19v-.14a5.09,5.09,0,0,0,.82-.12v.17h0c.28.37,6.87.37,7.15,0h0v-.41a2.31,2.31,0,0,0,.82-.16v-.37c0-.06-.3-.12-.82-.17v-.12a2.09,2.09,0,0,0,.82-.16v-.37c0-.06-.3-.12-.82-.16v-.15a2.31,2.31,0,0,0,.82-.16v-.37c0-.06-.3-.12-.82-.17V144l6.19.24v4.24l1.21.5-53.91,7.8Zm144.86-10.06V146H348.9v.69Zm0-1v-3.37H348.9v3.37Zm-126.64,1.81-4-.29v-1.71l4.89.27v1.57a3.26,3.26,0,0,0-.85.16ZM228.85,144v1.54c-.41,0-.65.09-.65.15,0,.39-.17.43.65.53v.16a2,2,0,0,0-.61.12l-.21,0v-2.42l.82-.06Zm-9,2.29v.21c-.47.05-.75.11-.75.17,0,.46-.19.5.75.6v.19l-.27,0a5.26,5.26,0,0,0-1-.17v-1a4.8,4.8,0,0,0,1.31,0Zm-41.31,7.85,5.28-.75.12,1.58-5.4-.83Zm-17.9-3,6.38,1.11v.13l-6.39-1v-.26Zm23.37,4.7,0,.43-10.14-1.75,0-.35c3.35.54,6.7,1.08,10.08,1.67Zm-16.94-2.78,0,.29-6.45-1.12V152c2.15.39,4.3.75,6.43,1.1Zm51.47-4.75c1.27-.12.46-.16,1.31-.06v.16c-.46.05-.73.11-.75.17a4,4,0,0,0-.56-.06v-.21Zm9.51-1a4.14,4.14,0,0,0,.82-.12v.05c-.6.07-.65.07-.65.26H228v-.18ZM23.72,163.54l-8.65,1.33.19-2.52,8.46,1.19Zm28.65-4.81v.41l-10.23,1.57,0-.21,10.21-1.77ZM15,166.25c5.4-.94,10.77-1.81,16.13-2.67l0,.56-16.22,2.8.05-.69Zm27.1-4.44c3.42-.57,6.85-1.15,10.3-1.77v.44L42,162.26Z"/><path class="cls-4" d="M80.68,27.35,82.3,77.69l10.47-2.6L117.5,96.31v4.14l3.58-.47V96.84c-.63-.24-1-.53-1-.85,0-1.93-.27-2.17,1-2.67v-.76c-.63-.24-1-.53-1-.85,0-1.93-.27-2.17,1-2.67v-.63c-.63-.24-1-.53-1-.85,0-1.93-.27-2.17,1-2.67V82.83h0c.35-1.88,8.31-1.88,8.66,0h0V84.9c1,.48.79.82.79,2.66,0,.28-.28.54-.79.77v.72c1,.48.79.82.79,2.66,0,.28-.28.54-.79.77v.85c1,.48.79.81.79,2.66,0,.28-.28.54-.79.77v2.08l1.36-.18,2,2.31L135.38,99l6.54,1.63,1-31.46c0-.84,1.83-1.52,4.08-1.52s4.11.66,4.07,1.59L152,99l2.05-1.27,3.64,1,1.65,1.92-1,.48,1.19.33V105l1,.26v2.81l6.5-2.63L167.71,87c-.32-.18-.5-.4-.5-.62V84.85c.09-.82,1.8-1.24,3.45-1.21s3.19.52,3.31,1.21v1.54c0,.26-.24.5-.64.7l.5,15.68,10.26-4.15.13-3.81c-.29-.16-.46-.33-.46-.53V93c.08-.69,1.65-1,3.15-1s2.91.43,3,1v1.29c0,.22-.22.43-.59.6l0-.36.14,3.79,55,17.17L245,115h3.37v-2.76l1.73-1.91h17.65V115h3.15v-2.09c-.95-.37-1.51-.81-1.51-1.3v-2.85c.11-.46.66-.87,1.51-1.21v-1.16c-.95-.36-1.51-.81-1.51-1.3v-2.84c.11-.47.66-.88,1.51-1.22v-1c-.95-.37-1.51-.82-1.51-1.3V95.93c.11-.46.66-.88,1.51-1.22V91.58h0c.22-1.21,3.06-2.17,6.54-2.17s6.32,1,6.54,2.17h0v3.15c.69.32,1.13.73,1.19,1.2v2.85c0,.43-.43.83-1.19,1.17v1.1c.69.32,1.13.73,1.19,1.2v2.84c0,.44-.43.84-1.19,1.18v1.29c.69.33,1.13.73,1.19,1.2v2.85c0,.43-.43.83-1.19,1.17V115h2.53v3.21h16.88v-3.63h2.68v-4.93a.69.69,0,0,1,.69-.69h2.34a.69.69,0,0,1,.69.69v4.93H312v-4.93a.7.7,0,0,1,.7-.69H315a.7.7,0,0,1,.7.69v4.93h14.88l3.81,3.89v2.17H348.9v-7l5.89-6.85h.93l2.62-3.54h34.18v3.54h3.64v11h2.42l2.38-3.47,2.46-.36v-2c-.4-.15-.64-.34-.64-.55,0-1.23-.18-1.38.64-1.7v-.49c-.4-.15-.64-.34-.64-.55,0-1.23-.18-1.38.64-1.71v-.4c-.4-.15-.64-.34-.64-.55,0-1.23-.18-1.38.64-1.71V103h0c.22-1.2,5.33-1.2,5.55,0h0v1.33c.66.31.51.52.51,1.7,0,.18-.19.35-.51.5v.46c.66.31.51.52.51,1.7,0,.19-.19.35-.51.5v.54c.66.31.51.52.51,1.7,0,.19-.19.35-.51.5v1.33l.87-.11,10.73,12.29v4.07l.4,0,.83.92V132c29.68,0,46,.23,74.85,0l11.79-4.13v-7l20.81-3,1.83,1.28h0l4.19-.56v-1.72c-.34-.14-.54-.3-.54-.48v-1c0-.16.24-.31.54-.43v-.42c-.34-.13-.54-.3-.54-.47v-1c0-.17.24-.32.54-.44v-.35c-.34-.13-.54-.29-.54-.47v-1c0-.17.24-.32.54-.44v-1.13h0c.08-.44,1.1-.79,2.36-.79s2.29.35,2.37.79h0v1.14c.25.12.41.26.44.43v1c0,.16-.16.3-.44.42v.4c.25.12.41.27.44.44v1c0,.15-.16.3-.44.42v.47c.25.12.41.26.44.43v1c0,.16-.16.3-.44.43v1.15l.74-.1,7.42,8.56,3.89-.85,5.88.4V122.2c-.57-.12-.9-.25-.9-.4v-.88c.06-.14.39-.27.9-.37v-.36c-.57-.11-.9-.25-.9-.4v-.87c.06-.14.39-.27.9-.38v-.29c-.57-.11-.9-.25-.9-.4V117c.06-.14.39-.26.9-.37v-1h0c.31-.87,7.55-.87,7.87,0h0V116a3.17,3.17,0,0,1,.91-.3v-.33c-.65-.13-1-.29-1-.46v-1c.08-.17.46-.31,1-.43v-1.11h0c.36-1,8.65-1,9,0h0v1.11l.19,0v-.22c.09-.2.55-.38,1.25-.52v-.41c-.79-.16-1.25-.35-1.25-.56v-1.21c.09-.2.55-.37,1.25-.52v-1.34h0c.43-1.21,10.48-1.21,10.91,0h0v1.35c.58.14,1,.31,1,.51v1.21c0,.19-.36.36-1,.5v.22l5.39-1.54v-.84l15.25-4.66.54-11.87,0,.39c-.4-.18-.64-.41-.64-.65V92c.12-.64,1.69-1.08,3.33-1.11s3.37.35,3.46,1.11v1.42c0,.21-.19.41-.51.58l.15.6,11.28,4.56.55-8.91c-.44-.22-.7-.48-.7-.77v-1.7c.14-.76,1.85-1.28,3.65-1.32s3.69.42,3.78,1.32v1.7c0,.25-.2.49-.55.69l.66,12,7.15,2.89v-3.1l1.14-.28v-3.9l1.31-.36-1.07-.53,1.8-2.11,4-1.13,2.24,1.4,11.13,1.81L668.65,95l17,14.58v2.85l2.46-.33V110c-.43-.17-.69-.37-.69-.59,0-1.32-.18-1.49.69-1.83v-.52c-.43-.17-.69-.37-.69-.59,0-1.32-.18-1.49.69-1.84v-.43c-.43-.16-.69-.36-.69-.58,0-1.32-.18-1.49.69-1.84v-1.41h0c.24-1.29,5.72-1.29,5.95,0h0v1.42c.71.33.54.56.54,1.83,0,.19-.2.37-.54.53v.49c.71.33.54.56.54,1.83,0,.19-.2.38-.54.53v.58c.71.33.54.56.54,1.83,0,.2-.2.37-.54.53v1.43l.93-.12.11.13v27.51H0V92.09l5.62-1.72.79-22.5,0,.57c-.59-.27-.94-.59-.94-.94V65.42c.19-.92,2.47-1.57,4.85-1.61s4.91.51,5,1.61V67.5c0,.3-.26.59-.73.84l.22,6.1,16.41,6.63L32,56c-.64-.32-1-.71-1-1.13V52.39c.2-1.11,2.69-1.87,5.3-1.92s5.38.61,5.51,1.92v2.46c0,.38-.29.72-.79,1L42,85.42l10.41,4.2v-4.5L54,84.71V79l1.9-.53-1.55-.77L57,74.68,62.84,73l3.27,2,1.53-47.6c-.07-1.5,2.85-2.57,6.51-2.57s6.53,1.1,6.53,2.45Zm508.39,90.11a2.19,2.19,0,0,1-1,.38v3.72l5.39.64v-4.06l-4.44-.68Zm-23.25,8.36.91-.16v-5.74l-.22,0a1.49,1.49,0,0,1-.69.27v.4c.91.22.72.32.72,1.25,0,.13-.26.25-.72.36v3.66Zm9.93-5.45a2.73,2.73,0,0,1,1.44-.1v-2.38a3.26,3.26,0,0,1-1.15-.38l-.29.08V118c1,.25.83.34.83,1.43,0,.15-.31.29-.83.41v.49Zm45.44-18.62-5.94-2,.13,3.74,5.81-1.77Zm19.7,7.13v-.6l-7-2.33v.31l7,2.62ZM615.18,97.73c3.71,1.41,7.4,2.69,11.09,4l0-.83-11.15-4.15,0,1Zm18.63,6.59c2.35.84,4.71,1.7,7.08,2.62v-.65l-7.1-2.64,0,.67ZM577.19,115.6v-.49a5.84,5.84,0,0,1-.62-.14c0,.14-.31.28-.82.39v.39c.93.22,0,.14,1.44-.15ZM566.73,118v-.41l-.19,0c0,.44,0,.47-.72.62v.12a2.93,2.93,0,0,1,.91-.29ZM189.51,99.53l.31,9,13.87,4.23v.77l4.89,1.4v-.2c-.57-.13-.9-.29-.9-.46v-1.1c0-.18.38-.34.9-.47v-1.22h0c.4-1.1,9.53-1.1,9.92,0h0v1.22c.64.13,1.06.29,1.14.47v1.1c0,.19-.42.37-1.14.51v.37c.64.13,1.06.29,1.14.47v.21l.17,0v-1h0c.32-.91,7.86-.91,8.18,0h0v1c.53.11.88.24.94.38v.92c0,.15-.35.29-.94.41v.31a2.66,2.66,0,0,1,.82.27v-.37h0c.28-.8,6.87-.8,7.15,0h0v.87c.46.1.77.22.82.35v.79c0,.14-.3.27-.82.37v.27c.46.09.77.2.82.33v.8c0,.14-.3.26-.82.36v.33c.46.09.77.21.82.33v.8c0,.14-.3.26-.82.37v3.4l6.19-.53v-9.15l1.21-1.07L189.51,99.53Zm144.86,21.71v1.47H348.9v-1.47Zm0,2.08v7.26H348.9v-7.26Zm-126.64-3.91-4,.62v3.68l4.89-.57v-3.39a1.89,1.89,0,0,1-.85-.34Zm21.12,7.6v-3.33c-.41-.1-.65-.21-.65-.33,0-.84-.17-.93.65-1.13v-.36a1.27,1.27,0,0,1-.61-.25l-.21,0v5.21l.82.15Zm-9-5v-.44c-.47-.11-.75-.24-.75-.38,0-1-.19-1.07.75-1.29v-.42l-.27-.07a2.76,2.76,0,0,1-1,.35V122a2.44,2.44,0,0,1,1.31.08Zm-41.31-16.93,5.28,1.62.12-3.41-5.4,1.79Zm-17.9,6.49,6.38-2.38v-.29l-6.39,2.12v.55ZM184,101.48l0-.93-10.14,3.77,0,.76c3.35-1.16,6.7-2.33,10.08-3.6Zm-16.94,6,0-.62-6.45,2.4v.6c2.15-.84,4.3-1.62,6.43-2.38Zm51.47,10.25c1.27.26.46.34,1.31.13v-.35c-.46-.1-.73-.23-.75-.36a4.56,4.56,0,0,1-.56.14v.44Zm9.51,2.21a2.66,2.66,0,0,1,.82.27v-.11c-.6-.14-.65-.16-.65-.56l-.17,0v.37ZM23.72,84.85,15.07,82l.19,5.45,8.46-2.58ZM52.37,95.23v-.88L42.14,91l0,.45,10.21,3.82ZM15,79c5.4,2,10.77,3.91,16.13,5.76l0-1.21-16.22-6L15,79Zm27.1,9.59c3.42,1.22,6.85,2.47,10.3,3.81v-1L42,87.62Z"/><path class="cls-5" d="M28.05,154.92H193.16v-.11h.31v-.2H28.37v.11h-.32v.2ZM285.25,160H522.42v.12h.46v.19H285.7v-.11h-.45V160Zm377.94-9.62h.45v.13H500.06v-.11h-.45v-.13H663.19v.11Zm-235.57-5.26h.45v.14H316.56v-.11h-.46V145H427.62v.11Zm163.26,9.74h.45V155h-73v-.11h-.45v-.13h73v.11ZM685.36,166h.45v.18H460.21V166h-.45v-.18h225.6V166Zm-99.73,6.17h.46v.19H485.47v-.11H485V172H585.63v.11ZM427.3,168.72h.45v.3H267.9v-.11h-.45v-.3H427.3v.11Zm55.92-25.89h69.95v.11h.46v.13h-70V143h-.45v-.13ZM291.14,164.54h.32v-.13H177.59v.11h-.32v.13H291.14v-.11Zm-164,5.26h.31v-.13H49.84v.11h-.31v.13h77.63v-.11Zm113.65-9.74h.31v-.13H190.34V160H190v.13h50.79v-.11ZM306.58,149h.32v-.19h-157v.11h-.32v.19h157V149Zm-69.42-6.18h.31v-.19h-70v.12h-.31v.18h70v-.11Zm-110.22,3.42h.31v-.3H16V146h-.32v.29H126.94v-.11Zm38.92,25.9h48.7V172h.32v-.13h-48.7V172h-.32Z"/></g></g></svg>