<svg xmlns="http://www.w3.org/2000/svg" xmlns:xlink="http://www.w3.org/1999/xlink" viewBox="0 0 695.12 173.78"><defs><style>.cls-1{fill:url(#GradientFill_12);}.cls-2,.cls-3,.cls-4,.cls-5{fill-rule:evenodd;}.cls-2{fill:url(#GradientFill_13);}.cls-3{fill:url(#GradientFill_14);}.cls-4{fill:url(#GradientFill_15);}.cls-5{fill:url(#GradientFill_16);}</style><radialGradient id="GradientFill_12" cx="564.93" cy="280.53" r="711.75" gradientUnits="userSpaceOnUse"><stop offset="0" stop-color="#7c96b1"/><stop offset="0.33" stop-color="#79819c"/><stop offset="0.69" stop-color="#3e3868"/><stop offset="1" stop-color="#00163e"/></radialGradient><radialGradient id="GradientFill_13" cx="306.26" cy="196.97" r="323.31" gradientUnits="userSpaceOnUse"><stop offset="0" stop-color="#2c375a"/><stop offset="0.11" stop-color="#2c365c"/><stop offset="0.23" stop-color="#2d3455"/><stop offset="0.33" stop-color="#2d2e53"/><stop offset="0.72" stop-color="#181446"/><stop offset="1" stop-color="#000938"/></radialGradient><radialGradient id="GradientFill_14" cx="514.38" cy="83.96" r="521.19" gradientUnits="userSpaceOnUse"><stop offset="0" stop-color="#7a96b1"/><stop offset="0.27" stop-color="#7c8ca6"/><stop offset="0.72" stop-color="#5b6890"/><stop offset="1" stop-color="#4d5581"/></radialGradient><radialGradient id="GradientFill_15" cx="629.71" cy="186.44" r="330.11" gradientUnits="userSpaceOnUse"><stop offset="0" stop-color="#3c4660"/><stop offset="0.11" stop-color="#3c4661"/><stop offset="0.23" stop-color="#3d445e"/><stop offset="0.33" stop-color="#3d3f5b"/><stop offset="0.72" stop-color="#2d2c50"/><stop offset="1" stop-color="#1c2646"/></radialGradient><linearGradient id="GradientFill_16" x1="653.96" y1="117.96" x2="-86.82" y2="117.96" gradientUnits="userSpaceOnUse"><stop offset="0" stop-color="#0b0b3e"/><stop offset="1" stop-color="#00000f"/></linearGradient></defs><g id="Layer_2" data-name="Layer 2"><g id="Layer_1-2" data-name="Layer 1"><rect class="cls-1" width="695.11" height="173.78"/><polygon class="cls-2" points="368.13 102.21 362.33 102.21 362.33 108.41 362.25 108.41 362.25 98.32 348.52 98.32 348.52 96.79 346.69 96.79 346.69 98.32 331.54 98.32 331.54 105.96 330.36 105.96 330.36 108.71 319.67 108.71 319.67 96.79 317.84 96.79 317.84 108.71 314.15 108.71 314.15 97.33 311.6 97.33 311.6 108.71 310 108.71 310 107.09 308.17 107.09 308.17 108.71 306.24 108.71 306.24 102.21 298.73 102.21 298.73 81.68 293.13 81.68 293.13 115.36 290.21 115.36 290.21 111.53 288.84 111.53 288.84 96.79 287.02 96.79 287.02 111.53 281.81 111.53 281.81 82.66 273.97 82.66 273.97 115.36 271.17 115.36 271.17 111.69 269.07 111.69 269.07 100.35 263.46 100.35 263.46 111.69 261.16 111.69 261.16 115.36 259.99 115.36 259.99 108.84 258.17 108.84 258.17 115.36 257.52 115.36 257.52 91.51 239.85 91.51 239.85 81.68 232.75 81.68 232.75 108.41 231.43 108.41 231.43 105.96 228 105.96 228 101.83 225.07 101.83 225.07 96.79 223.24 96.79 223.24 101.83 220.73 101.83 220.73 108.41 206.32 108.41 206.32 115.36 202.78 115.36 202.78 97.33 199.55 97.33 199.55 115.36 197.53 115.36 197.53 107.09 195.22 107.09 195.22 115.36 194.45 115.36 194.45 98.32 183.15 98.32 183.15 102.21 183.06 102.21 183.06 115.36 180.61 115.36 180.61 107.9 177.62 107.9 177.62 115.36 171.26 115.36 171.26 108.71 165.6 108.71 165.6 96.79 163.29 96.79 163.29 108.71 155.29 108.71 155.29 105.96 142.64 105.96 142.64 108.71 132.43 108.71 132.43 111.69 130.6 111.69 130.6 115.36 129.13 115.36 129.13 96.79 126.81 96.79 126.81 103.53 122.15 103.53 122.15 97.33 118.93 97.33 118.93 115.36 116.91 115.36 116.91 107.09 114.59 107.09 114.59 115.36 112.14 115.36 112.14 102.21 106.51 102.21 106.51 82.66 96.6 82.66 96.6 115.36 90.41 115.36 90.41 100.35 83.32 100.35 83.32 115.36 75.8 115.36 75.8 91.51 46.01 91.51 46.01 115.36 38.48 115.36 38.48 101.83 29.29 101.83 29.29 115.36 25.79 115.36 25.79 111.53 24.06 111.53 24.06 96.79 21.75 96.79 21.75 111.53 13.14 111.53 13.14 115.36 9.27 115.36 9.27 105.96 5.59 105.96 5.59 115.36 4.21 115.36 4.21 158.54 9.81 158.54 22.19 158.54 34.46 158.54 46.63 158.54 58.7 158.54 70.68 158.54 368.13 158.54 368.13 102.21"/><path class="cls-3" d="M694.7,13.5h.42v.56h-1.27c-11.92.16-31.28.22-45.9.22-10.59,0-21.89,0-31.93-.09-19.11.53-134.67.49-156.47,0-11.2.19-29,.21-41.47.21-11.32,0-25.7,0-35.89-.14-7.82.08-18.11.12-26.9.12-9.05,0-19.72,0-27.63-.12-4,0-27.48.14-52.05-.08-36.31-.32.45-.89,48.36-.74,7.86-.34,39.55-.39,52-.39,11.66,0,24.54,0,35.25.12,16.52-.2,42.75-.26,61.94-.26,17.32,0,37.61.05,53.6.18,15.08-.2,39-.27,57.17-.27,13.71,0,28.26,0,41.14.12,8.66.06,18.63.15,24,.29,14.66,0,34.11.07,45.62.25ZM0,0H0V4.8H7.4c27.62,0,57.08-.16,83.27-.53,13.42.81,47.57,1.3,68.85,1.55,79,.9,192.26.9,271.41,0,20.62-.23,52.24-.67,67.85-1.39,26.6,1,78.42,1.2,108.16,1.2,27.56,0,62.08-.18,88.18-.68V0ZM0,8.16H0v4.78c11.94-.18,21-.41,25.64-.69,14,.2,29.85.29,44.67.29,20.43,0,47.54-.18,64.21-.7.27,0,33.65.48,62.82-.09,20.43-.39,20.44-1.11,0-1.51-18.32-.36-42.77-.37-61.62-.1-16.11-.54-43.31-.73-63.83-.74C64.41,9,50.48,8.67,38.36,8.49S13.12,8.21,0,8.16ZM0,19H0v1.86l6.29,0c8.73,0,22.75-.15,28.25-.31,10.74.08,22.83.11,34.16.11,15.64,0,36.37-.07,49.13-.26,7,.05,14.84.07,22.2.07,8.58,0,18.11,0,25.85-.1,15.59-.15,15.59-.41,0-.56-14.65-.14-32.19-.14-47.14,0-12.32-.2-33.12-.27-48.83-.27-5.72-.16-16.37-.27-25.65-.34C30.46,19,14.91,19,.23,19Zm0,9.4H0v.91q23.15,0,60.93-.29c31.51-.23,63.6-.11,65.89-.19,30.59.08,62.52,0,60.89-.13,150.46-.05,129.43-.42-.27-.41,5.35-.15-35.3-.25-68.14-.11.25,0,0-.07-.69-.1-20.89,0-41.79-.07-62.61,0-23.06.08-41.68.19-56,.32Zm0,9.32H0V39.1c103.76-.35,133.08-1.08,0-1.38ZM695.12,55.4h0v-.33H642.2c6-.14-39.43-.23-76.1-.1.28,0,0-.06-.77-.09-23.32,0-46.66-.07-69.92,0-141.12.39-134.38,1.64,5.51.83,35.19-.2,71-.09,73.58-.16,34.16.07,69.81,0,68-.12l52.62,0Zm0-5.53h0v-.22c-45.88.07-53.29.16,0,.22Zm0-13.81h0V33.91q-9.55.2-18.27.46c-80-.38-121.41-.2-118,.47-130.88.2-16,.77,54.25.72-11.32.41,18.81.74,82,.5Zm0-8.62h0v-.89c-77.07.28-93.86.69,0,.89Zm0-8.7h0V16.88c-11.93.05-24.9.18-33.39.43-6-.08-12.71-.11-19-.11-44.68,0-44.68,1.25,0,1.25,6.57,0,13.62,0,19.84-.12,8.51.24,21,.36,32.57.41ZM380.65,44.26h0c-30,.08-60,0-90.12,0-1,0-1.35-.06-1-.1-47.27.14-105.77,0-98.08-.12-186.69,0-216.95-.36-.39-.41-2.34-.16,43.61-.21,87.64-.13,3.29-.08,49.49,0,94.84-.19,180.31-.93,189,.51,7.1.95ZM116.5,52.55h0c17.28,0,34.6,0,51.92,0,.57,0,.78,0,.57.06,27.23-.09,60.94,0,56.5.08,107.55,0,125,.23.23.26,1.35.11-25.12.14-50.49.09-1.89.05-28.51,0-54.64.12-103.87.61-108.88-.33-4.09-.61ZM321.19,23.86h0c-6.11,0-44.26-.06-44.26.13s24.76.15,28.28.15c5.52,0,11.44,0,16.67,0,9.58.08,25.15.11,36.9.11,8.51,0,17.6,0,25.66,0,4.13.07,14.67.11,21.22.13,27,.08,56.6.08,83.65,0,6.36,0,16.09-.05,20.92-.11,3.17,0,7.7,0,11.59.06,6.88,0,14.51,0,21.73,0,9.12,0,20.67,0,28.87-.07,6.29,0,14.56.06,21.63.06,7.26,0,15.84,0,22.19-.06l15.76,0c50,0,50-.41,0-.41H619.22c-2.39-.06-8.43-.1-13.92-.12-8.52,0-18.61-.06-27.91-.06s-19.73,0-28.34.06c-13.28-.09-34.37-.12-49.8-.12-13.93,0-30.24,0-43.09.08-12.11-.09-31.35-.12-46-.12-11,0-22.71,0-33.07.05-7,0-15,.07-19.27.14C346.08,23.75,330.45,23.78,321.19,23.86Z"/><polygon class="cls-4" points="695.11 117.64 688.98 117.64 688.98 122.14 688.9 122.14 688.9 114.81 674.39 114.81 674.39 113.7 672.45 113.7 672.45 114.81 656.43 114.81 656.43 120.36 655.18 120.36 655.18 122.36 643.88 122.36 643.88 113.7 641.95 113.7 641.95 122.36 638.05 122.36 638.05 114.09 635.35 114.09 635.35 122.36 633.66 122.36 633.66 121.18 631.73 121.18 631.73 122.36 629.68 122.36 629.68 117.64 621.75 117.64 621.75 102.73 615.82 102.73 615.82 127.18 612.74 127.18 612.74 124.4 611.3 124.4 611.3 113.7 609.37 113.7 609.37 124.4 603.86 124.4 603.86 103.44 595.58 103.44 595.58 127.18 592.61 127.18 592.61 124.52 590.39 124.52 590.39 116.29 584.47 116.29 584.47 124.52 582.03 124.52 582.03 127.18 580.8 127.18 580.8 122.45 578.87 122.45 578.87 127.18 578.18 127.18 578.18 109.87 559.5 109.87 559.5 102.73 552 102.73 552 122.14 550.61 122.14 550.61 120.36 546.98 120.36 546.98 117.36 543.88 117.36 543.88 113.7 541.95 113.7 541.95 117.36 539.29 117.36 539.29 122.14 524.06 122.14 524.06 127.18 520.31 127.18 520.31 114.09 516.9 114.09 516.9 127.18 514.76 127.18 514.76 121.18 512.32 121.18 512.32 127.18 511.51 127.18 511.51 114.81 499.57 114.81 499.57 117.64 499.47 117.64 499.47 127.18 496.88 127.18 496.88 121.77 493.71 121.77 493.71 127.18 486.99 127.18 486.99 122.36 481.01 122.36 481.01 113.7 478.57 113.7 478.57 122.36 470.12 122.36 470.12 120.36 456.74 120.36 456.74 122.36 445.94 122.36 445.94 124.52 444.01 124.52 444.01 127.18 442.45 127.18 442.45 113.7 440.01 113.7 440.01 118.6 435.08 118.6 435.08 114.09 431.67 114.09 431.67 127.18 429.54 127.18 429.54 121.18 427.09 121.18 427.09 127.18 424.5 127.18 424.5 117.64 418.54 117.64 418.54 103.44 408.07 103.44 408.07 127.18 401.52 127.18 401.52 116.29 394.02 116.29 394.02 127.18 386.07 127.18 386.07 109.87 354.59 109.87 354.59 127.18 346.63 127.18 346.63 117.36 336.91 117.36 336.91 127.18 333.21 127.18 333.21 124.4 331.38 124.4 331.38 113.7 328.94 113.7 328.94 124.4 319.83 124.4 319.83 127.18 315.74 127.18 315.74 120.36 311.85 120.36 311.85 127.18 310.4 127.18 310.4 158.54 316.32 158.54 329.4 158.54 342.37 158.54 355.24 158.54 368 158.54 380.66 158.54 695.11 158.54 695.11 117.64"/><path class="cls-5" d="M532.87,104.33l-.08,1-1.08-1ZM0,173.78H695.11V144.5h-13.9l.55-2.06a1.89,1.89,0,1,0-1.58.26l-.49,1.8h-2.11v-7a.61.61,0,0,0-.61-.61h-8.9a.61.61,0,0,0-.61.61v3.66h-4.71a.35.35,0,0,0-.35.35v3h-.46l-1.35-15.56v-.05h0l-.5-5.82H658a2.39,2.39,0,0,0,.69-1.54l11.52,1.91-.06.37a.68.68,0,0,0,.56.78l1.06.17a.73.73,0,0,0,.39-.05l.57,2.77a.26.26,0,0,0,.22.2.28.28,0,0,0,.27-.11A15.38,15.38,0,0,0,675,116.83a.26.26,0,0,0-.22-.19.26.26,0,0,0-.27.12l-1.44,2.43a.61.61,0,0,0-.35-.17l-1.06-.18a.67.67,0,0,0-.77.56l-.06.37-31.71-5.27.06-.37a.68.68,0,0,0-.55-.77l-1.06-.18a.68.68,0,0,0-.38,0l-2.3-11.13a.62.62,0,0,0-.54-.47.64.64,0,0,0-.67.26c-4.49,7.08-6.35,18.31-4.39,26.47a1,1,0,0,0,.09.21v8h-.33c-.15,0-.28.19-.28.43v3.38h-.54v-8a.68.68,0,0,0-.68-.68h-10a.69.69,0,0,0-.68.68v4.09h-5.26a.4.4,0,0,0-.39.4v3.55h-.5l-1.53-17.62v-.07h0l-.55-6.35,10.25,5.7-.2.36a.75.75,0,0,0,.29,1l1.05.59a.84.84,0,0,0,.43.09l-.44,3.13a.3.3,0,0,0,.16.29.29.29,0,0,0,.32,0,17.22,17.22,0,0,0,5.91-10.64.29.29,0,0,0-.16-.28.3.3,0,0,0-.33,0l-2.42,2a.84.84,0,0,0-.31-.31l-1-.58a.75.75,0,0,0-1,.29l-.2.36L589.6,101l.2-.36a.75.75,0,0,0-.29-1l-1-.59a.78.78,0,0,0-.42-.09l1.76-12.57a.72.72,0,0,0-.38-.71.7.7,0,0,0-.81,0c-7.38,5.77-13.56,16.89-14.57,26.21a.72.72,0,0,0,.4.69v7.74h-.38c-.17,0-.31.22-.31.48v6.81c0,.27.14.48.31.48h.38v1a3.07,3.07,0,0,0,0,5.47v2.29l-.33,1.2h-3.34V126.36a1,1,0,0,0-1-1H555.32a1,1,0,0,0-1,1v5.94h-7.64a.58.58,0,0,0-.58.57V138h-.72l-2.22-25.62v-.09h0l-.82-9.46H539a3.94,3.94,0,0,0,1.12-2.75,4.38,4.38,0,0,0,0-.52l20.62-1.84,0,.61a1.08,1.08,0,0,0,1.19,1l1.74-.15a1.14,1.14,0,0,0,.59-.24l2,4.13a.46.46,0,0,0,.81-.07,25,25,0,0,0-1.57-17.61.43.43,0,0,0-.43-.2.41.41,0,0,0-.37.29l-1.27,4.41a1.09,1.09,0,0,0-.62-.13l-1.74.16a1.09,1.09,0,0,0-1,1.18l.05.6-52,4.63-.05-.59a1.08,1.08,0,0,0-1.18-1l-1.75.15a1.07,1.07,0,0,0-.57.23L496.48,78.6a1.11,1.11,0,0,0-2,.15c-4.17,12.94-2.54,31.3,3.82,43.33v4.28h-.55c-.24,0-.44.31-.44.69v.21l-6.73-1.11,0-.23a.43.43,0,0,0-.34-.49l-.67-.11a.45.45,0,0,0-.23,0L488,118.4a.38.38,0,0,0-.34-.3.39.39,0,0,0-.42.16,23.73,23.73,0,0,0-2.74,16.55.5.5,0,0,0,.05.13v5h-.2c-.1,0-.17.12-.17.27v2.11h-.34v-5a.43.43,0,0,0-.43-.43h-6.22a.43.43,0,0,0-.43.43v2.55h-3.28a.25.25,0,0,0-.25.25v2.22h-.31l-1-11v0h0l-.34-4,6.41,3.56-.13.23a.48.48,0,0,0,.18.64l.66.36a.43.43,0,0,0,.27.06l-.28,2a.19.19,0,0,0,.1.18.2.2,0,0,0,.2,0,10.72,10.72,0,0,0,3.7-6.65.16.16,0,0,0-.1-.17.18.18,0,0,0-.21,0l-1.51,1.26a.44.44,0,0,0-.19-.19l-.66-.37a.47.47,0,0,0-.64.18l-.13.23-19.63-10.91.13-.23a.47.47,0,0,0-.18-.63l-.66-.37a.48.48,0,0,0-.26-.06l1.1-7.86a.44.44,0,0,0-.24-.44.47.47,0,0,0-.51,0,26.54,26.54,0,0,0-9.1,16.39.43.43,0,0,0,.24.43v4.85h-.23c-.11,0-.19.13-.19.29v4.27c0,.16.08.29.19.29h.23v.64a1.92,1.92,0,0,0,0,3.42v1.43l-.2.75h-2.09v-7.3a.62.62,0,0,0-.62-.62h-9a.63.63,0,0,0-.63.62v3.71h-4.78a.36.36,0,0,0-.36.36v3.23H432l-1.39-16v-.06h0l-.51-5.91H428a2.42,2.42,0,0,0,.7-1.72,1.67,1.67,0,0,0,0-.32l12.89-1.15,0,.37a.69.69,0,0,0,.75.62l1.08-.09a.73.73,0,0,0,.37-.15l1.27,2.57a.25.25,0,0,0,.26.14.29.29,0,0,0,.25-.17,15.64,15.64,0,0,0-1-11,.27.27,0,0,0-.27-.13.26.26,0,0,0-.23.18l-.79,2.76a.59.59,0,0,0-.39-.08l-1.09.09a.7.7,0,0,0-.62.74l0,.38-32.51,2.89,0-.37a.7.7,0,0,0-.74-.62l-1.1.1a.64.64,0,0,0-.35.14l-5.1-10.35a.64.64,0,0,0-.64-.34.66.66,0,0,0-.6.43c-2.6,8.09-1.58,19.57,2.4,27.09v2.68h-.35c-.15,0-.28.19-.28.43v6.2c0,.23.13.43.28.43h.35v3.88H383.94v-2.78h.27c.11,0,.21-.15.21-.33v-4.81c0-.19-.1-.34-.21-.34h-.27v-2.08a30,30,0,0,0,1.86-21,.55.55,0,0,0-1-.07l-4,8a.5.5,0,0,0-.27-.11l-.85-.07a.54.54,0,0,0-.58.48l0,.29-25.26-2.25,0-.29a.54.54,0,0,0-.48-.58l-.84-.07a.54.54,0,0,0-.31.06l-.61-2.14a.22.22,0,0,0-.39,0,12.1,12.1,0,0,0-.76,8.55.2.2,0,0,0,.18.13.2.2,0,0,0,.21-.1l1-2a.57.57,0,0,0,.29.11l.84.08a.53.53,0,0,0,.58-.48l0-.29,10,.89a2,2,0,0,0,0,.25,1.92,1.92,0,0,0,.55,1.34h-1.61l-.4,4.59h0v.05l-1.08,12.45h-.35V139.4a.28.28,0,0,0-.28-.27h-3.72v-2.89a.47.47,0,0,0-.48-.48h-7a.47.47,0,0,0-.48.48v5.68h-1.63l-.15-.59v-1.11a1.5,1.5,0,0,0,0-2.66v-.49h.18c.08,0,.15-.11.15-.24v-3.31c0-.12-.07-.23-.15-.23H347v-3.76a.35.35,0,0,0,.19-.34,20.64,20.64,0,0,0-7.08-12.73.35.35,0,0,0-.39,0,.35.35,0,0,0-.19.34l.86,6.11a.35.35,0,0,0-.2,0l-.51.28a.38.38,0,0,0-.15.5l.1.17-15.25,8.48-.1-.18a.36.36,0,0,0-.49-.14l-.51.29a.31.31,0,0,0-.15.15l-1.18-1a.18.18,0,0,0-.16,0,.17.17,0,0,0-.08.14,8.4,8.4,0,0,0,2.87,5.17.15.15,0,0,0,.16,0,.14.14,0,0,0,.08-.14l-.22-1.52a.38.38,0,0,0,.21,0l.51-.29a.35.35,0,0,0,.14-.49l-.09-.18,5-2.77-.27,3.09h0v0l-.75,8.57h-.24v-1.73a.18.18,0,0,0-.19-.19h-2.56v-2a.33.33,0,0,0-.33-.33h-4.83a.33.33,0,0,0-.33.33v3.91h-.26v-1.65c0-.11-.06-.21-.13-.21h-.17v-3.89a.19.19,0,0,0,.05-.1,18.45,18.45,0,0,0-2.13-12.86.31.31,0,0,0-.33-.12.3.3,0,0,0-.26.23l-1.12,5.4a.36.36,0,0,0-.18,0l-.52.09a.33.33,0,0,0-.27.37l0,.18L300.13,133l0-.18a.32.32,0,0,0-.37-.27l-.52.09a.3.3,0,0,0-.17.08l-.7-1.18a.11.11,0,0,0-.13-.06.12.12,0,0,0-.1.09,7.49,7.49,0,0,0,.86,5.22.13.13,0,0,0,.13,0,.13.13,0,0,0,.11-.1l.28-1.34a.36.36,0,0,0,.18,0l.52-.08a.33.33,0,0,0,.27-.38l0-.18,5.6-.93a1.18,1.18,0,0,0,.33.75h-1l-.25,2.83h0v0l-.61,7h-.27v-.89a.18.18,0,0,0-.17-.17h-2.29v-1.78a.29.29,0,0,0-.29-.29h-4.33a.29.29,0,0,0-.29.29v2.84h-1.18l-.09-.33a.9.9,0,0,0,.67-.88.92.92,0,1,0-1.43.76l.12.45H277.35v-4.21l-1.93.13v-2.14c.33-.07.52-.15.52-.23v-.51c0-.08-.23-.15-.52-.21v-.2c.33-.06.52-.15.52-.23v-.5c0-.08-.23-.16-.52-.21V136c.33-.07.52-.15.52-.23v-.51c0-.08-.23-.15-.52-.21v-.55h0c-.18-.5-4.33-.5-4.51,0h0v.23a1.83,1.83,0,0,0-.52-.17v-.19c.37-.08.59-.17.59-.27v-.57c0-.09-.26-.17-.59-.24v-.64h0c-.2-.57-4.95-.57-5.15,0h0v.64l-.1,0v-.13c-.06-.12-.32-.22-.72-.3v-.23c.45-.09.72-.2.72-.32v-.7c-.06-.11-.32-.21-.72-.29v-.77h0c-.25-.7-6-.7-6.25,0h0v.77c-.33.08-.54.18-.57.29v.7c0,.1.21.2.57.28v.12h-9.4v-3.32h-2.2l-.53-9.56v.23c.23-.11.37-.24.37-.38v-.79H242.5v.79c0,.13.11.24.29.34l-.59,9.37H238l-.51-14.24c.25-.12.4-.27.4-.44v-.93h-4.26v.93c0,.15.12.28.32.4l-.84,14.28c-2.71,0-2,0-4.13,0l-.42-25.84c.34-.17.54-.38.54-.6v-1.25h-5.74V103c0,.2.15.38.42.53l-.58,21.74-1.88-1.52-5.93,0-7.21,7.09h-1.29c0-.68.09-.78-.39-1v-.3c.24-.09.39-.21.39-.34,0-.75.11-.85-.39-1V128c.24-.09.39-.2.39-.33,0-.76.11-.85-.39-1v-.81h0c-.13-.74-3.27-.74-3.4,0h0v.81c-.41.19-.32.33-.32,1,0,.11.12.22.32.3v.29c-.41.19-.32.32-.32,1,0,.12.12.22.32.31v.33c-.39.18-.32.31-.32,1h-.87v1.88l-3.78,7H187.33V106.33c0-2.77-3-4.36-6.41-4.78v-1.28c0-.23-.25-.42-.57-.42h-2.53c-.31,0-.57.19-.57.42v1.28c-3.43.42-6.41,2-6.41,4.78v33.46H169V106.33c0-2.77-3-4.36-6.41-4.78v-1.28c0-.23-.26-.42-.57-.42h-2.53c-.32,0-.57.19-.57.42v1.28c-3.43.42-6.42,2-6.42,4.78v16.19H147a5,5,0,0,0-5,4.94h-.85a5,5,0,0,0-5,5V140h-2.81V122.77h-5.86L125,85.23h.76l0-.17c-.06-.64,0-1.21,0-1.83h2.79V82.05l-7.72-1.19-7.72,1.19v1.18h2.79c0,.62,0,1.19,0,1.83l0,.18h.76l-2.42,37.53h-5.87v4h-1.53V100.14h-.9l-2-36.07h1.07V62.15H96.76v1.92h1.07L96.48,88.23h-2.4A7.1,7.1,0,0,0,87,95.3v4.84H85.55V98.43a4.84,4.84,0,0,0-4.82-4.82H78.42a7.1,7.1,0,0,0-6.87-5.38H64.23c-.75-3.18-4.57-5-8.89-5.55V80.86c0-.32-.36-.59-.8-.59H51c-.45,0-.81.27-.81.59v1.82c-4.83.58-9,2.82-9,6.72v47.11H38.56V89.4c0-3.9-4.2-6.14-9-6.73V80.86c0-.32-.36-.59-.81-.59H25.17c-.45,0-.81.27-.81.59v1.81c-4.83.59-9,2.83-9,6.73v47.11H12.74V89.4c0-3.9-4.19-6.14-9-6.73V80.86c0-.32-.37-.59-.81-.59H0v93.51Zm367.16-48.24h.56l-.52.47,0-.47Zm16.13,10.7c-.12,0-.22.15-.22.34v4.81c0,.18.1.33.22.33h.26v2.78H379.2v-.57h-7.8v-1.44a.57.57,0,0,0-.57-.57h-1.05l-1.08-12.45v-.05h0l-.4-4.59h-1.38a2,2,0,0,0,.55-1.25l11.43,1,0,.29a.52.52,0,0,0,.48.57l.85.08a.56.56,0,0,0,.29-.06l2.47,8.62a.52.52,0,0,0,.46.34h.14v1.79Zm-37.77,8.26h-3.75v-.05h-5.36v-1a.39.39,0,0,0-.4-.39h-.72l-.74-8.57v0h0l-.28-3.17h-.95a1.3,1.3,0,0,0,.38-.91,1.34,1.34,0,0,0-.24-.76l7.13-4,.1.18a.35.35,0,0,0,.49.14l.51-.28a.43.43,0,0,0,.15-.15l4.73,3.95a.22.22,0,0,0,.13.06v3.72h-.18c-.08,0-.15.11-.15.23v3.31c0,.13.07.24.15.24h.18v.38a1.84,1.84,0,0,0-.41,0,1.49,1.49,0,0,0-.84,2.72l.48,1.82a.58.58,0,0,0-.41.55v2Zm1.18-4.18v0Zm14.94,1.6.22-2.59h.64l-.23,2.59Zm1.2,0,.22-2.59h4.73l.22,2.59Zm5.74,0-.23-2.59H369l.22,2.59Zm13-20,2.93-6a.51.51,0,0,1,.54-.26.48.48,0,0,1,.44.38,23.79,23.79,0,0,1,.35,3.13.42.42,0,0,1-.22.39l-4,2.32Zm-.25,2.83,3.57,3a.43.43,0,0,1,.15.42,25.49,25.49,0,0,1-.91,3,.49.49,0,0,1-.5.3.51.51,0,0,1-.48-.35l-1.83-6.39Zm.08-1.42,3.7-1.66a.54.54,0,0,1,.51,0,.46.46,0,0,1,.25.4c-.05,1.09-.14,2.17-.29,3.25a.46.46,0,0,1-.31.35.54.54,0,0,1-.51-.07l-3.35-2.29Zm-14.16,3.3.59-.53.29,3.28h-.64l-.24-2.75Zm.31,3.48h.26l-.25.2v-.2Zm.07.85.59-.48.31,3.5h-.64l-.26-3Zm.32,3.75H368l-.06.05v-.05Zm.06.7.6-.42.32,3.58h-.64l-.28-3.16Zm-4.32-9.89,0,.47-.52-.47Zm-.09,1.11-.24,2.75h-.64l.29-3.28.59.53Zm-.3,3.48,0,.2-.24-.2Zm-.08.85-.26,3h-.63l.3-3.5.59.48Zm-.32,3.75v.05l-.06-.05Zm-.06.7-.28,3.16h-.63l.31-3.58.6.42Zm1.12-6.49.16-1.81.92.83-1.08,1Zm1.46-1.32-1.24-1.14.08-.94h2.33l.09.94-1.26,1.14Zm1.31-.49.16,1.81-1.08-1,.92-.83Zm-1.31,1.18,1.21,1.09h-2.41l1.2-1.09Zm-1.86,5.25.19-2.16,1.25,1-1.44,1.15Zm1.87-1.5-1.63-1.3.06-.63H367l.06.63-1.62,1.3Zm1.67-.66.19,2.16-1.43-1.15,1.24-1Zm-1.68,1.35L367,134h-3.09l1.54-1.25Zm-2.26,5.44.21-2.38,1.57,1.11-1.78,1.27Zm2.26-1.61-2-1.43,0-.42h3.93l0,.42-2,1.43Zm2.07-.77.2,2.38-1.78-1.27,1.58-1.11Zm-2.07,1.46,1.87,1.32h-3.73l1.86-1.32Zm-31.93-5.48h.39l-.36.33,0-.33ZM311.3,143v1.46h-1.54l-.61-7v0h0l-.25-2.83h-.85a1.16,1.16,0,0,0,.34-.82,1.55,1.55,0,0,0,0-.31l7.48-1.24,0,.17a.32.32,0,0,0,.38.27l.51-.08a.34.34,0,0,0,.17-.08l2.8,4.75a.3.3,0,0,0,.31.14v3a1,1,0,0,0-.9-.52,1,1,0,0,0-1,1,1,1,0,0,0,.44.85l.32,1.2H311.3Zm8.43-1.23v1.25h0l-.29-1.1a.94.94,0,0,0,.32-.15Zm-1.05,1.41a.4.4,0,0,0-.08.23v1.05h-.32v-1.27Zm-4.75.09-1,.89-.33.3h-.79v-1.15l2.12,0Zm-.9,1.19.22-.2.94-.86v1.06Zm3.15-1.23-.76.88-.31.35h-.53v-1.2l1.6,0Zm-.74,1.23.16-.19.76-.9v1.09Zm2.47-1.26-.6.89-.25.37h-.4v-1.24l1.25,0Zm-.59,1.26.11-.18c.21-.32.42-.63.61-.93v1.11Zm12.37-1.44.15-1.79h.44l-.15,1.79Zm.83,0,.15-1.79h3.25l.16,1.79Zm4,0-.16-1.79h.44l.15,1.79Zm-3-11.76h-1l.71-.39a1.16,1.16,0,0,0,.26.39Zm9.66-8.18-.63-4.53a.34.34,0,0,1,.2-.35.33.33,0,0,1,.4,0,16.85,16.85,0,0,1,1.41,1.65.27.27,0,0,1,0,.3l-1.41,2.89Zm1,1.71,3.19.33a.27.27,0,0,1,.25.18,18.25,18.25,0,0,1,.65,2.06.35.35,0,0,1-.17.37.36.36,0,0,1-.41,0L342,124.83Zm-.5-.84,1.46-2.38a.43.43,0,0,1,.3-.19.31.31,0,0,1,.3.14c.39.63.76,1.29,1.09,2a.31.31,0,0,1,0,.32.42.42,0,0,1-.32.16Zm-8,8.57.41-.37.2,2.26h-.44l-.17-1.89Zm.21,2.39h.18l-.17.14V135Zm.05.58.41-.33.21,2.41H334l-.18-2.08Zm.23,2.58h0l0,0v0Zm0,.48.41-.29.21,2.47h-.43l-.19-2.18Zm-3-6.8,0,.33-.36-.33Zm-.07.77-.17,1.89h-.43l.19-2.26.41.37Zm-.21,2.39v.14l-.17-.14Zm-.05.58-.18,2.08h-.44l.21-2.41.41.33Zm-.22,2.58v0l-.05,0Zm0,.48-.19,2.18h-.44l.21-2.47.42.29Zm.77-4.46.11-1.25.63.58-.74.67Zm1-.91-.86-.78.05-.65h1.61l.06.65-.86.78Zm.9-.34.1,1.25-.74-.67.64-.58Zm-.9.81.83.76h-1.67l.84-.76ZM331,137.31l.13-1.49.86.69-1,.8Zm1.29-1-1.12-.9,0-.43h2.16l0,.43-1.11.9Zm1.15-.46.13,1.49-1-.8.86-.69Zm-1.15.93,1.06.86h-2.13l1.07-.86Zm-1.56,3.74.14-1.64,1.08.77-1.22.87Zm1.56-1.11-1.38-1,0-.29h2.71l0,.29-1.37,1Zm1.41-.53.15,1.64-1.23-.87,1.08-.77Zm-1.41,1,1.28.91H331l1.29-.91Zm-24.1-4.78h.35l-.32.29,0-.29Zm11.83-.2c0,.17,0,.34,0,.51a.3.3,0,0,1-.25.26.33.33,0,0,1-.34-.14L317.31,132l2.59,1.24a.24.24,0,0,1,.13.11v1.54Zm-14.78,9.62h-.39l.08-.94h.39l-.08.94Zm3.42,0H305.6l.08-.94h2.91l.08.94Zm.74,0H309l-.08-.94h.39l.08.94ZM317,130.27l.83-4a.32.32,0,0,1,.28-.23.3.3,0,0,1,.32.16,15.36,15.36,0,0,1,.7,1.81.27.27,0,0,1-.07.27l-2.06,2Zm.12.86,1.95-1.56a.38.38,0,0,1,.31-.07.27.27,0,0,1,.2.2,17,17,0,0,1,.33,2,.27.27,0,0,1-.12.26.37.37,0,0,1-.32,0l-2.35-.85Zm-8.88,4.63.36-.33.18,2h-.39l-.15-1.69Zm.19,2.15h.16l-.15.12v-.12Zm0,.51.37-.29.18,2.15h-.39l-.16-1.86Zm.2,2.31h0l0,0v0Zm0,.43.37-.26.19,2.21h-.39l-.17-2Zm-2.66-6.08,0,.29-.32-.29Zm-.06.68-.15,1.69h-.39l.18-2,.36.33Zm-.19,2.15V138l-.14-.12Zm0,.51-.16,1.86h-.39l.18-2.15.37.29Zm-.2,2.31v0l0,0Zm0,.43-.17,2H305l.19-2.21.37.26Zm.7-4,.09-1.12.57.52-.66.6Zm.89-.82-.77-.69.06-.58h1.43l.06.58-.78.69Zm.81-.3.1,1.12-.67-.6.57-.52Zm-.81.73.75.67h-1.49l.74-.67ZM306,140l.11-1.34.77.62L306,140Zm1.14-.93-1-.8,0-.38h1.93l0,.38-1,.8Zm1-.41.11,1.34-.88-.72.77-.62Zm-1,.84.95.76h-1.89l.94-.76Zm-1.39,3.34.13-1.47,1,.69-1.09.78Zm1.39-1L305.9,141l0-.26h2.42l0,.26-1.24.88Zm1.27-.48.13,1.47-1.1-.78,1-.69Zm-1.27.91,1.15.81H306l1.14-.81Zm-36.22-2-.52-.09V137l.13,0a.76.76,0,0,0,.39.16v.22c-.52.13-.41.19-.41.72,0,.07.15.14.41.2v2.1Zm-5.69-3.12a1.54,1.54,0,0,0-.82-.06v-1.36a1.69,1.69,0,0,0,.65-.22l.17,0v.26c-.59.14-.47.19-.47.81,0,.09.17.17.47.24v.28Zm-.82-2.73v-.28l.35-.08c0,.08.18.15.47.22v.22c-.53.13,0,.09-.82-.08Zm6,1.39v-.23l.11,0c0,.25,0,.26.41.35v.07a1.83,1.83,0,0,0-.52-.17ZM150.9,144.5h-1.12V138h2.72v1.79h-1.6v4.71Zm-3.5,0h-.3v-3.86a2.69,2.69,0,0,1,.3-1.23v5.09Zm-2.68,0h-.33V129.84h.37a2.65,2.65,0,0,1,2.64,2.65v3.71a5,5,0,0,0-2.68,4.44v3.86Zm-2.71,0h-3.42V140h-.08v-7.51a2.65,2.65,0,0,1,2.65-2.65H142V144.5Zm7.77-8.88v-3.13a5,5,0,0,0-5-5h-.37A2.66,2.66,0,0,1,147,124.9h5.47v10.72ZM66.18,123a1.47,1.47,0,0,1,1.47,1.47v2.35H64.37V123Zm-1.81-3.35V91.58h7.18a3.73,3.73,0,0,1,3.72,3.72v4.84H73.58v26.67H71v-2.35a4.84,4.84,0,0,0-4.82-4.82Zm26-19.5V95.3a3.73,3.73,0,0,1,3.72-3.72h2.21l-.48,8.56Zm-11.74,0V97h2.11a1.47,1.47,0,0,1,1.47,1.47v1.71Zm45.61-27.76v4l-1.72,4h-3.44l-1.72-4v-4h6.88Zm-9,50.39.43-6.65,1.63,1.59,2,1.94-2.18,2.06-1.13,1.06Zm3.93,0,1.67-1.62,1.68,1.62Zm6.53,0-1.13-1-2.19-2.07c.68-.64,1.34-1.29,2-1.94l1.63-1.59.43,6.65ZM124.15,88l-2.26-1.26,2.11-1.2.15,2.46Zm-6.56-2.45,2.11,1.19L117.43,88l.16-2.46Zm-.45,7,.19-3,2.32,1.43-1.24.76-1.27.77ZM119.58,96l-1.41.94-1.38.92.24-3.61,1.24.85,1.31.9Zm-.08,6.17-1.61,1.2c-.51.37-1,.74-1.52,1.12l.28-4.48,1.35,1,1.5,1.13Zm-3.3,4.95c.49.42,1,.85,1.47,1.26l1.73,1.46-1.87,1.55-1.7,1.41.37-5.68Zm6,2.72,1.73-1.46c.49-.41,1-.84,1.47-1.26l.37,5.68-1.7-1.41-1.87-1.55Zm-.11-7.67c.51-.38,1-.76,1.51-1.13l1.34-1,.29,4.48c-.5-.38-1-.75-1.52-1.12l-1.62-1.2ZM122,96l1.32-.9,1.24-.85.23,3.61L123.41,97,122,96Zm2.45-3.55-1.27-.77-1.24-.76,2.31-1.44.2,3Zm-2.15-7.23-1.51.85-1.5-.84Zm-1.51,25.82,2,1.69,2,1.7-1.92,1.8-2.09,2-2.08-2-1.92-1.8,2-1.7,2-1.69Zm-3.5-5.25,1.74-1.31,1.76-1.34,1.77,1.34,1.74,1.31-1.67,1.38-1.84,1.52L119,107.18l-1.66-1.38Zm3.5-9,1.59,1.08,1.51,1L122.44,100l-1.65,1.22L119.15,100l-1.46-1.07,1.52-1,1.58-1.08ZM118,93.36l1.33-.82,1.43-.9,1.44.89,1.33.83-1.28.84-1.49,1-1.49-1L118,93.36Zm2.76-3.13-2.48-1.5,2.48-1.42,2.49,1.42-2.49,1.5Zm303.36,29.56,0,.61-.67-.61Zm-20.76,13.77h-.34v-2.31h.19a.64.64,0,0,0,.58-.45L407,119.72a.73.73,0,0,0,.38.08l1.09-.1a.69.69,0,0,0,.62-.74l0-.38,14.71-1.31a2.46,2.46,0,0,0,.7,1.61h-1.78l-.51,5.91h0v.06l-1.39,16h-1.35a.75.75,0,0,0-.74.75v1.86h-10v1h-5.61v-3.88h.34c.16,0,.28-.2.28-.43V134c0-.24-.12-.43-.28-.43ZM452,144.5v-2.89a.73.73,0,0,0-.53-.71l.63-2.35a1.91,1.91,0,0,0-1.62-3.42v-.51h.24c.1,0,.19-.13.19-.29v-4.27c0-.16-.09-.29-.19-.29h-.24V125a.34.34,0,0,0,.17-.08l6.1-5.09a.41.41,0,0,0,.18.19l.66.37a.48.48,0,0,0,.64-.18l.12-.23,9.18,5.1a1.67,1.67,0,0,0-.31,1,1.71,1.71,0,0,0,.49,1.19h-1.22l-.36,4.07h0v0l-1,11h-.93a.51.51,0,0,0-.51.51v1.28h-6.9v.38Zm-1.52-5.68h0v0Zm-19.22,2h-.82l-.29-3.33H431l.29,3.33Zm-1.54,0h-6.67l.29-3.33h6.09l.29,3.33Zm-7.39,0h-.82l.29-3.33h.81l-.28,3.33Zm-16.74-25.71-5.2-3a.51.51,0,0,1-.29-.49,34.53,34.53,0,0,1,.46-4,.63.63,0,0,1,.57-.5.64.64,0,0,1,.68.34l3.78,7.67Zm.32,3.65L403.56,127a.68.68,0,0,1-.62.45.64.64,0,0,1-.65-.39,33.37,33.37,0,0,1-1.16-3.89.51.51,0,0,1,.19-.53l4.59-3.86Zm-.1-1.83-4.31,3a.73.73,0,0,1-.66.08.55.55,0,0,1-.39-.45,41.6,41.6,0,0,1-.38-4.18.57.57,0,0,1,.32-.51.7.7,0,0,1,.66,0l4.76,2.14ZM424,121.22l-.31,3.54h-.81l.36-4.23.76.69Zm-.39,4.48,0,.25-.31-.25Zm-.09,1.09-.34,3.88h-.82l.39-4.5.77.62Zm-.42,4.83v.06l-.08-.06Zm-.08.9-.35,4.07h-.82l.4-4.62.77.55Zm5.56-12.73h.73l-.68.61-.05-.61Zm.13,1.43.76-.69.36,4.23H429l-.3-3.54Zm.38,4.48h.34l-.31.25,0-.25Zm.1,1.09.76-.62.4,4.5h-.82l-.34-3.88Zm.42,4.83h.09l-.09.06v-.06Zm.08.9.77-.55.4,4.62h-.82l-.35-4.07Zm-1.45-8.36-1.39-1.25,1.18-1.08.21,2.33Zm-1.89-1.7L424.77,121l.11-1.21h3L428,121l-1.61,1.46Zm-1.68-.63,1.19,1.08-1.39,1.25.2-2.33Zm1.68,1.52,1.56,1.41h-3.11l1.55-1.41Zm2.41,6.77-1.85-1.49,1.6-1.3.25,2.79Zm-2.41-1.94-2.08-1.68.07-.8h4l.07.8-2.09,1.68Zm-2.16-.85,1.61,1.3L424,130.12l.24-2.79Zm2.16,1.74,2,1.6h-4l2-1.6Zm2.92,7L427,134.44l2-1.44.27,3.06ZM426.38,134l-2.57-1.83,0-.54h5.06l0,.54L426.38,134Zm-2.65-1,2,1.44-2.28,1.62.26-3.06Zm2.65,1.88,2.41,1.71H424l2.4-1.71Zm41.11-7,0,.42-.47-.42Zm28.56,14.49-6.3,0H486.3l.42-1.55a1.3,1.3,0,0,0,.57-1.09,1.32,1.32,0,0,0-1.32-1.32,1.34,1.34,0,0,0-1.15.68v-3.9a.38.38,0,0,0,.39-.19l3.61-6.11a.41.41,0,0,0,.21.1l.67.11a.42.42,0,0,0,.48-.35l0-.22,7.11,1.18V137c0,.38.2.69.44.69h.55v3.25l-.31,3.6h-2v-2.18Zm-10.85-1.59a1.53,1.53,0,0,0,.41.19l-.38,1.41h0v-1.6Zm1.35,1.82h.52v1.94h-.42v-1.66a.43.43,0,0,0-.1-.29Zm6.11.11,2.74.05v1.79h-.68l-.77-.69-1.29-1.15Zm1.5,1.84h-1.82v-1.67c.38.36.78.72,1.2,1.1l.62.57Zm-4.39-1.89,2.07,0v1.86h-.43l-.66-.76-1-1.13ZM491,144.5h-1.45v-1.71c.32.37.64.76,1,1.16l.48.55Zm-3.45-1.93,1.62,0v1.91h-.32l-.53-.78c-.26-.4-.52-.78-.77-1.15Zm1,1.93h-1.15v-1.73l.79,1.19.36.54Zm-16.14-2.17h-.56l-.2-2.29h.56l.2,2.29Zm-1.06,0h-4.58l.19-2.29h4.19l.2,2.29Zm-5.08,0h-.57l.2-2.29h.56l-.19,2.29Zm3.9-15.12a1.75,1.75,0,0,0,.34-.51l.92.51h-1.26Zm-12.43-10.54L455.9,113a.36.36,0,0,1,0-.4,24,24,0,0,1,1.81-2.11.45.45,0,0,1,.52-.07.48.48,0,0,1,.27.46l-.82,5.83Zm-1.22,2.2L452,122.64a.48.48,0,0,1-.74-.46,22.79,22.79,0,0,1,.84-2.66.38.38,0,0,1,.32-.23l4.11-.42Zm.64-1.08h-3.59a.51.51,0,0,1-.41-.2.41.41,0,0,1-.05-.41,27.09,27.09,0,0,1,1.4-2.53.41.41,0,0,1,.38-.17.5.5,0,0,1,.39.24l1.88,3.06Zm10.28,11-.21,2.43h-.57l.26-2.9.52.47Zm-.27,3.08v.17l-.22-.17Zm-.06.75-.24,2.67h-.56l.27-3.1.53.43Zm-.29,3.32v0l0,0Zm-.06.62-.24,2.8h-.56l.27-3.18.53.38Zm3.83-8.76h.5l-.46.42,0-.42Zm.09,1,.52-.47.25,2.9h-.56l-.21-2.43Zm.26,3.08h.23l-.21.17,0-.17Zm.07.75.53-.43.26,3.1h-.56l-.23-2.67Zm.29,3.32h.06l-.06,0v0Zm.05.62.53-.38.28,3.18h-.57l-.24-2.8Zm-1-5.75-.95-.86.81-.74.14,1.6ZM469,129.67l-1.11-1,.07-.84h2.07l.07.84-1.1,1Zm-1.16-.43.82.74-1,.86.14-1.6Zm1.16,1,1.07,1H468l1.07-1Zm1.65,4.66-1.27-1,1.1-.89.17,1.92ZM469,133.61l-1.43-1.16.05-.55h2.77l0,.55L469,133.61Zm-1.48-.59,1.11.89-1.27,1,.16-1.92Zm1.49,1.2,1.37,1.1h-2.74l1.37-1.1Zm2,4.81-1.57-1.12,1.39-1L471,139Zm-2-1.42-1.78-1.26,0-.38h3.48l0,.38L469,137.61Zm-1.83-.69,1.4,1L467,139l.18-2.11Zm1.83,1.3,1.65,1.17h-3.3l1.65-1.17Zm48.65,4h6.45v-3a1.19,1.19,0,0,1,1.19-1.19h2.16l2.22-25.62v-.09h0l.82-9.46h2.84a3.92,3.92,0,0,1-1.12-2.57l-23.53,2.1.06.6a1.1,1.1,0,0,1-1,1.18l-1.75.16a1,1,0,0,1-.6-.13L500.35,122a1,1,0,0,1-.93.72h-.3v3.69h.54c.25,0,.45.31.45.69v.67l10.32,1.72,0-.23a.43.43,0,0,1,.49-.35l.67.11a.43.43,0,0,1,.21.11l.9-1.52a.16.16,0,0,1,.17-.08.17.17,0,0,1,.14.12,9.62,9.62,0,0,1-1.12,6.72.15.15,0,0,1-.17.06.15.15,0,0,1-.13-.12l-.36-1.73a.48.48,0,0,1-.24,0l-.67-.11A.42.42,0,0,1,510,132l0-.22-7.2-1.2a1.52,1.52,0,0,1-.43,1h1.28l.31,3.64h0v0l.81,9.33h.32v-1.45a.22.22,0,0,1,.22-.22h2.72v-.63h.22v-1.66a.38.38,0,0,1,.39-.38h5.56a.38.38,0,0,1,.38.38v1.66h.85a1.19,1.19,0,0,1,2.2,0Zm-17.57-10.85a1,1,0,0,0,.12.15h-.12v-.15Zm-15.29.46v-2a.46.46,0,0,1,.16-.15l3.34-1.59-2.68,4.53a.41.41,0,0,1-.44.18.38.38,0,0,1-.32-.33l-.06-.66Zm19,12.69-.13-1.52h.51l.13,1.52Zm-4.45,0,.13-1.52h3.75l.13,1.52Zm-10.72-18.63L486,123.28A.32.32,0,0,1,486,123a22.06,22.06,0,0,1,.89-2.34.38.38,0,0,1,.42-.2.4.4,0,0,1,.36.3l1.07,5.16Zm-.15,1.11-3,1.1a.44.44,0,0,1-.4-.05.36.36,0,0,1-.17-.33,24.23,24.23,0,0,1,.43-2.55.32.32,0,0,1,.26-.26.44.44,0,0,1,.4.08l2.51,2Zm11,10.67-.1,1.11h-.34v-1.11Zm-.15,1.69v0l-.05,0Zm-.05.56-.22,2.5h0v-2.68l.24.18Zm3.43-7.84h.44l-.41.38,0-.38Zm.07.88.47-.42.22,2.6h-.5l-.19-2.18Zm.24,2.77h.21l-.19.15,0-.15Zm.06.66.47-.38.24,2.77h-.5l-.21-2.39Zm.26,3h.05l-.05,0v0Zm.05.56.47-.34.25,2.84h-.51l-.21-2.5Zm-.9-5.14-.85-.78.73-.66.12,1.44Zm-1.16-1-1-.9.07-.75h1.85l.07.75-1,.9Zm-1-.39.73.66-.85.78.12-1.44Zm1,.94,1,.86h-1.91l1-.86Zm1.48,4.16-1.13-.92,1-.79.15,1.71Zm-1.48-1.19-1.28-1,0-.48h2.49l0,.48-1.29,1Zm-1.3-.5,1,.77-1.13.92.09-1.08a.92.92,0,0,0,.08-.38v-.23Zm1.3,1.05,1.23,1h-2.45l1.22-1Zm1.8,4.3-1.41-1,1.25-.89.16,1.89Zm-1.8-1.27-1.58-1.13,0-.34H503l0,.34-1.59,1.13Zm-1.63-.62,1.25.89-1.41,1,.16-1.89Zm1.63,1.17,1.48,1h-2.95l1.47-1ZM602.19,117.2l-.06.67-.74-.67ZM654.25,124l0,.6-.67-.6ZM585.13,144.5H577.4a.49.49,0,0,0,0-.12v-5.15a1.2,1.2,0,0,0-.85-1.14l1-3.75a3.07,3.07,0,0,0-1.74-5.6,3,3,0,0,0-.85.12v-.8h.38c.17,0,.3-.21.3-.48v-6.81c0-.26-.13-.48-.3-.48H575v-7.65a.68.68,0,0,0,.27-.13l9.75-8.14a.75.75,0,0,0,.3.31l1.05.58a.75.75,0,0,0,1-.29l.2-.36,14.67,8.15a2.74,2.74,0,0,0-.48,1.55,2.69,2.69,0,0,0,.77,1.89h-1.95l-.57,6.51h0v.07l-1.53,17.62H597a.82.82,0,0,0-.82.82v2h-11v1.25ZM575,134.81v0h0v0Zm86.24,9.69h-.8l-.27-3.07H661l.26,3.07Zm-1.52,0h-6.52l.26-3.07h6l.26,3.07Zm-7.24,0h-.8l.27-3.07h.8l-.27,3.07Zm-1.52,0h-3.08v-4.13l-10.08,0h-5.51l.67-2.48a2.11,2.11,0,1,0-3-2.78v-6.24a.62.62,0,0,0,.63-.29l5.77-9.78a.78.78,0,0,0,.34.17l1.06.17a.68.68,0,0,0,.78-.55l.06-.37L654,120.74a2.18,2.18,0,0,0-.09.63,2.47,2.47,0,0,0,.69,1.7h-1.74l-.51,5.82h0v.05l-1.36,15.56Zm-4.12,0h-.37l-2-1.74c-.71-.64-1.39-1.26-2.06-1.85l4.38.08v3.51Zm-1.28,0h-3.62v-3.31l1.93,1.76,1.69,1.55Zm-4.42,0H641l-1.6-1.86-1.57-1.81,3.3,0v3.62Zm-.82,0h-2.85v-3.38L639,143l1.29,1.53Zm-3.46,0h-.08l-1.27-1.9-1.23-1.84,2.58.05v3.69Zm-.61,0H634v-3.41c.41.61.83,1.25,1.26,1.91l1,1.5Zm-2.73,0h-.67v-3.29a.81.81,0,0,0-.16-.48l.83,0v3.75Zm-3-4.11v-2.57a2.24,2.24,0,0,0,.66.32l-.61,2.25Zm-.61-16.84v-3.16a.59.59,0,0,1,.26-.23l5.33-2.55-4.28,7.26a.65.65,0,0,1-.7.27.61.61,0,0,1-.52-.53c0-.35-.07-.7-.09-1.06Zm6.18-9.49-4.22-4.13a.53.53,0,0,1-.15-.55,32.52,32.52,0,0,1,1.43-3.73.63.63,0,0,1,.66-.33.66.66,0,0,1,.58.48l1.7,8.26Zm-.24,1.78L631,117.59a.7.7,0,0,1-.64-.08.57.57,0,0,1-.27-.53,40.17,40.17,0,0,1,.68-4.07.55.55,0,0,1,.42-.42.7.7,0,0,1,.64.14l4,3.21Zm18.29,9.53-.31,3.49H653l.36-4.16.75.67Zm-.39,4.42,0,.24-.31-.24Zm-.09,1.06-.33,3.83h-.81l.39-4.43.75.6Zm-.42,4.76v.06l-.08-.06Zm-.07.89-.35,4H652l.39-4.55.76.54ZM658.63,124h.72l-.66.6-.06-.6Zm.13,1.41.74-.67.37,4.16h-.81l-.3-3.49Zm.38,4.42h.33l-.31.24,0-.24Zm.09,1.06.76-.6.38,4.43h-.8l-.34-3.83Zm.42,4.76h.08l-.08.06v-.06Zm.07.89.76-.54.39,4.55h-.8l-.35-4Zm-1.43-8.23L656.92,127,658.1,126l.19,2.3Zm-1.85-1.67-1.58-1.44.1-1.2h3l.11,1.2-1.59,1.44Zm-1.65-.63L656,127l-1.36,1.24.2-2.3Zm1.65,1.5,1.53,1.39h-3.06l1.53-1.39Zm2.36,6.66L657,132.67l1.58-1.28.23,2.74Zm-2.36-1.9-2.06-1.66.07-.78h4l.06.78-2,1.66Zm-2.12-.84,1.58,1.28-1.82,1.46.24-2.74Zm2.12,1.72,2,1.57h-3.92l2-1.57Zm2.87,6.88-2.25-1.6,2-1.42.26,3Zm-2.87-2-2.54-1.8.05-.54h5l.05.54-2.54,1.8Zm-2.61-1,2,1.42-2.25,1.6.26-3Zm2.61,1.86,2.37,1.68h-4.73l2.36-1.68ZM610,140.39h-.9l-.31-3.66h.9l.31,3.66Zm-1.69,0H601l.32-3.66H608l.32,3.66Zm-8.14,0h-.89l.31-3.66h.9l-.32,3.66Zm6.25-24.19a2.64,2.64,0,0,0,.55-.81l1.46.81h-2ZM586.54,99.34l-2.89-5.93a.57.57,0,0,1,0-.63,35.8,35.8,0,0,1,2.9-3.39.7.7,0,0,1,.83-.1.73.73,0,0,1,.42.73l-1.3,9.32Zm-2,3.52-7.23,6a.72.72,0,0,1-.84,0,.7.7,0,0,1-.35-.75,37.67,37.67,0,0,1,1.34-4.26.6.6,0,0,1,.51-.37l6.57-.68Zm1-1.73-5.75,0a.79.79,0,0,1-.65-.33.62.62,0,0,1-.09-.66,44.07,44.07,0,0,1,2.25-4,.61.61,0,0,1,.6-.28.8.8,0,0,1,.62.38l3,4.89Zm16.43,17.65-.34,3.89h-.9l.41-4.65.83.76Zm-.43,4.93,0,.27-.34-.27Zm-.1,1.19-.37,4.28h-.9l.43-5,.84.68Zm-.46,5.32v.06l-.09-.06Zm-.09,1-.39,4.48h-.9l.44-5.09.85.61Zm6.12-14h.8l-.74.67-.06-.67Zm.14,1.58.83-.76.41,4.65h-.9l-.34-3.89Zm.43,4.93H608l-.34.27,0-.27Zm.1,1.19.84-.68.43,5h-.9l-.37-4.28Zm.46,5.32h.1l-.09.06v-.06Zm.09,1,.85-.61.44,5.09h-.9l-.39-4.48Zm-1.6-9.19-1.53-1.39,1.31-1.18.22,2.57Zm-2.07-1.88-1.77-1.6.12-1.34h3.3l.12,1.34-1.77,1.6Zm-1.85-.69,1.31,1.18L602.57,122l.22-2.57Zm1.85,1.67,1.71,1.55h-3.42l1.71-1.55Zm2.64,7.45-2-1.64L607,125.5l.26,3.07Zm-2.64-2.13-2.3-1.85.08-.88h4.44l.08.88-2.3,1.85Zm-2.37-.94,1.76,1.43-2,1.63.27-3.06Zm2.37,1.91,2.19,1.77h-4.38l2.19-1.77Zm3.21,7.7-2.52-1.79,2.23-1.58.29,3.37Zm-3.21-2.28-2.84-2,.06-.6h5.56l.06.6-2.84,2Zm-2.92-1.09,2.23,1.58-2.52,1.79.29-3.37Zm2.92,2.07,2.64,1.88H602l2.64-1.88ZM544.23,138h-1.3l-.47-5.33h1.31l.46,5.33Zm-2.46,0H531.11l.46-5.33h9.73l.47,5.33ZM530,138h-1.31l.46-5.33h1.31L530,138ZM503.18,96.92l-8.32-4.78a.84.84,0,0,1-.46-.79,54.18,54.18,0,0,1,.73-6.45,1,1,0,0,1,.91-.79,1.06,1.06,0,0,1,1.1.53l6,12.28Zm.52,5.83-3.77,13.15a1.07,1.07,0,0,1-1,.72,1,1,0,0,1-1-.62,53.38,53.38,0,0,1-1.86-6.22.87.87,0,0,1,.31-.86l7.35-6.17Zm-.16-2.92-6.9,4.71a1.18,1.18,0,0,1-1.05.14A.9.9,0,0,1,495,104a64.92,64.92,0,0,1-.59-6.69.88.88,0,0,1,.5-.82,1.18,1.18,0,0,1,1.05,0l7.63,3.43Zm29.13,6.79-.49,5.66h-1.31l.59-6.75,1.21,1.09Zm-.62,7.17,0,.41-.49-.41Zm-.15,1.74-.54,6.21h-1.31l.63-7.2,1.22,1Zm-.67,7.72v.1l-.13-.1Zm-.13,1.44-.56,6.52h-1.31l.64-7.39,1.23.87Zm8.9-20.36h1.16l-1.08,1-.08-1Zm.2,2.29,1.21-1.09.59,6.75h-1.31l-.49-5.66Zm.62,7.17h.54l-.5.4,0-.4Zm.15,1.74,1.22-1,.63,7.2h-1.31l-.54-6.21Zm.67,7.72h.14l-.13.1v-.1Zm.13,1.44,1.23-.87.64,7.39h-1.31l-.56-6.52Zm-2.32-13.36-2.23-2,1.9-1.72.33,3.73Zm-3-2.72-2.58-2.33.17-2h4.81l.17,2-2.57,2.33Zm-2.69-1,1.9,1.72-2.23,2,.33-3.73Zm2.69,2.43,2.48,2.25h-5l2.49-2.25Zm3.83,10.82-2.95-2.38,2.57-2.07.38,4.45Zm-3.83-3.09-3.34-2.69.11-1.28h6.45l.11,1.28-3.33,2.69ZM533,116.4l2.57,2.07-2.95,2.38.38-4.45Zm3.46,2.78,3.18,2.56h-6.36l3.18-2.56Zm4.66,11.19-3.66-2.6,3.23-2.3.43,4.9Zm-4.66-3.32-4.12-2.93.07-.87h8.09l.08.87-4.12,2.93Zm-4.24-1.58,3.23,2.3-3.66,2.6.43-4.9Zm4.24,3,3.83,2.73H532.6Z"/></g></g></svg>