<svg xmlns="http://www.w3.org/2000/svg" xmlns:xlink="http://www.w3.org/1999/xlink" viewBox="0 0 695.12 173.78"><defs><style>.cls-1{fill:url(#radial-gradient);}.cls-2,.cls-3,.cls-4,.cls-5,.cls-6,.cls-7,.cls-8{fill-rule:evenodd;}.cls-2{fill:url(#radial-gradient-2);}.cls-3{fill:url(#radial-gradient-3);}.cls-4{fill:#b8dba3;}.cls-5{fill:#99d094;}.cls-6{fill:url(#linear-gradient);}.cls-7{fill:url(#linear-gradient-2);}.cls-8{fill:url(#linear-gradient-3);}</style><radialGradient id="radial-gradient" cx="97.32" cy="95.58" r="605.39" gradientUnits="userSpaceOnUse"><stop offset="0" stop-color="#fffef8"/><stop offset="0.11" stop-color="#fff"/><stop offset="0.23" stop-color="#fefad7"/><stop offset="0.33" stop-color="#fefacf"/><stop offset="1" stop-color="#a9deee"/></radialGradient><radialGradient id="radial-gradient-2" cx="104.27" cy="77.78" r="594.65" gradientUnits="userSpaceOnUse"><stop offset="0" stop-color="#fffef8"/><stop offset="0.46" stop-color="#fefce6"/><stop offset="1" stop-color="#b9e4ef"/></radialGradient><radialGradient id="radial-gradient-3" cx="104.27" cy="80.55" r="592.3" gradientUnits="userSpaceOnUse"><stop offset="0" stop-color="#cbcbb2"/><stop offset="0.19" stop-color="#94987e"/><stop offset="0.33" stop-color="#487076"/><stop offset="1" stop-color="#2d5a61"/></radialGradient><linearGradient id="linear-gradient" x1="347.56" y1="138.03" x2="347.56" y2="99.94" gradientUnits="userSpaceOnUse"><stop offset="0" stop-color="#a1cd3e"/><stop offset="1" stop-color="#fcf062"/></linearGradient><linearGradient id="linear-gradient-2" x1="419.43" y1="156.72" x2="419.43" y2="112.7" xlink:href="#linear-gradient"/><linearGradient id="linear-gradient-3" x1="347.56" y1="202.43" x2="347.56" y2="111.98" xlink:href="#linear-gradient"/></defs><g id="Layer_2" data-name="Layer 2"><g id="Layer_1-2" data-name="Layer 1"><rect class="cls-1" width="695.12" height="173.78"/><path class="cls-2" d="M0,11v5.71c28.27,0,40.58-.8,34-1.79,220.46.14,329-1.59,40.66-2.23C77,10.8,50.88,10.19,0,11ZM0,58.65H0v.08c.51,0,.51-.06,0-.08ZM0,75H0v1.1l11.91,0c-1.37.42,25.35.57,51,.35,1.9.22,28.77-.12,55.14.51,104.83,2.5,109.89-1.37,4.13-2.57-17.43-.19-34.92,0-52.4,0-.57.09-.79.18-.58.28-27.48-.39-61.5-.11-57,.31Q5.86,75,0,75ZM208.14,41.73h0c22.47.22,45,0,67.54,0,.73-.1,1-.21.74-.32,35.43.44,79.28.12,73.51-.35,139.91,0,162.59-1.13.29-1.28,1.76-.49-32.68-.66-65.68-.4-2.47-.25-37.09.13-71.08-.59-135.13-2.85-141.64,1.57-5.32,2.94ZM486.93,62.48h0c-12.95-.14-25.93,0-38.91,0-.42.07-.58.13-.43.21-20.41-.29-45.66-.08-42.34.22-80.6,0-93.67.74-.17.84-1,.31,18.83.42,37.84.26,1.41.16,21.36-.09,40.94.38,77.85,1.85,81.6-1,3.07-1.91ZM695.12,28.62h0c-3.09-.32-5.8-.66-8-1-28.85,1.43-86.74.4-94.92-1.2-162.31.14-251.34-4.41-47.07-5.1C522,19,562.47,18.17,618.34,19.44c-5.37-1.2,32.13-2.6,76.78-3v12.2Zm0,38.32h0c-13.43.13-24.68.57-23,1-16.83-.41-29-.14-22,.59-61.44.21-34.58,1.66,14.31,1.61,2.51.51,20,.84,28.62.39.6.1,1.29.19,2.06.27Z"/><path class="cls-3" d="M77,65.15H58.24a137.62,137.62,0,0,1-.91,14.68,6.19,6.19,0,0,1,2.52,3.4,6.12,6.12,0,0,1,4,5.74v6.69h5.56c4.92-6.08,6.85-19.52,7.59-30.51ZM695.12,122H0V89H2.81L5.15,77.46H8.57v2.13H16V77.46h2.88v2.13h7.47V77.46H45.8l.42,2.1h7.84a5.4,5.4,0,0,1,5.26,4.23A5.41,5.41,0,0,1,63.23,89v7.42h6.63c6.91-8.12,8.26-30,8.4-42.38h26.23a169.54,169.54,0,0,0,1.73,23.2h.67l1.68,8.29h6a4.14,4.14,0,0,1,4,3.25,4.15,4.15,0,0,1,3,4V98.4h5.08c5.29-6.22,6.33-23,6.43-32.47h20.1c.07,6.52.59,16.42,2.61,24H197.1a4.23,4.23,0,0,1,4.22,4.15H202a4.25,4.25,0,0,1,4.23,4.23v6.47h32.37v2.33H248v-2.33h7v2.33h9.36v-2.33h13.05v2.33h95.95v-2.33h36.4v-3.57h.92v2.85l1,.07v-2.55l.45-.27h0l.29-.16.23-.14v-.12l-.52-.23v-.51l.52-.21v-.17l-.52-.24V99l.52-.22v-.55h0l2.13-.38v-.7h2.46a2.51,2.51,0,0,1,.48-.15V96.4h0c.2-.58,5-.58,5.2,0h0v.15l.52-.1v.26l.31-.08V96.4c-.45-.09-.72-.2-.72-.32v-.7c0-.12.31-.22.72-.3v-.77h0c.25-.71,6.05-.71,6.29,0h0v.77c.33.08.55.18.58.3v.7c0,.1-.21.2-.58.29v.12h7.38v-.78h2.09V93.13h2.23l.53-9.63v.23c-.24-.11-.38-.24-.38-.38v-.8h3.92v.8c0,.13-.1.24-.29.34l.6,9.44h4.2l.52-14.35c-.26-.12-.41-.27-.41-.44V77.4h4.29v.94c0,.14-.11.28-.32.4l.85,14.39c2.73,0,2,0,4.16,0l.43-26c-.35-.17-.55-.38-.55-.61V65.22H465v1.26c0,.2-.16.39-.43.54l.58,21.92,1.9-1.54,6,0,7.27,7.15h1.3c0-.69-.09-.79.4-1v-.3c-.25-.1-.4-.21-.4-.34,0-.76-.1-.86.4-1.06v-.25c-.25-.09-.4-.21-.4-.34,0-.76-.1-.86.4-1.06v-.81h0c.14-.75,3.3-.75,3.43,0h0v.82c.41.19.31.32.31,1,0,.11-.11.22-.31.31v.28c.41.19.31.33.31,1.06,0,.11-.11.22-.31.3v.34c.39.19.32.32.31,1h.88v1.89L488,99l1.22-7,2.15.47h21V86.66h1.31l1-2.12c.3-.68.55-1.21.74-1.65h.75V78.28h2.33v4.61h.74l.75,1.65.95,2.12h1.76l1.77-2.35h6.36A4.37,4.37,0,0,1,535,87.74a4.39,4.39,0,0,1,3.17,4.2v6h5.38c5.6-6.59,6.69-24.3,6.8-34.37h21.27c.11,9.67,1.15,26.35,6.17,33.52a10.85,10.85,0,0,1,7.14,7.33h.11v3.11H630v-3h.78v1.56l.82,0V104l.37-.22h0l.25-.14.19-.11v-.11l-.44-.19v-.42l.44-.18v-.15l-.44-.19v-.42l.44-.19v-.46h0l1.79-.32v-.58h2.06a1.65,1.65,0,0,1,.41-.13v-.53h0c.17-.49,4.19-.49,4.36,0h0v.12l.43-.08v.22l.26-.06v-.2c-.38-.08-.61-.17-.61-.27v-.59c0-.09.27-.18.61-.25v-.64h0c.21-.59,5.07-.59,5.28,0h0v.65c.27.06.45.14.48.24v.59c0,.09-.18.17-.48.24v.1h6.18V99.1H655V96.94h1.87l.44-8.08v.19c-.2-.09-.31-.2-.31-.31v-.68h3.29v.68c0,.1-.09.19-.25.28l.5,7.92H664l.43-12c-.21-.1-.34-.23-.34-.37v-.79h3.6v.79c0,.12-.1.24-.27.33l.71,12.08h3.5L672,75.09c-.29-.14-.46-.32-.46-.5V73.52h4.86v1.07c0,.16-.13.32-.36.45l.49,18.38,1.59-1.29,5,0,6.1,6h1.09c0-.58-.08-.66.33-.82v-.25c-.21-.08-.33-.18-.33-.29,0-.64-.09-.72.33-.88V95.7c-.21-.08-.33-.18-.33-.29,0-.64-.09-.72.33-.88v-.69h0c.12-.62,2.77-.62,2.88,0h0v.69c.35.16.27.27.27.88,0,.1-.1.18-.27.26v.24c.35.16.27.27.27.88,0,.1-.1.19-.27.26v.28c.34.16.27.27.27.82h.74v1.59l.57,1.06V122Zm-58.64-20.63.18,0v-.16l-.18,0v.24Zm5,2.13.26,0v-1.15l-.26-.06v1.19Zm.26-2.24V101a1,1,0,0,1-.26-.06v.36l.26-.06Zm-5.06,1.18v-.19l-.09,0c0,.13,0,.18-.09.22v0l.18,0Zm-468.23-.29h7.83c.29,0,.56,1.3.75,2.68h17.77v-3.72H168.43v1Zm-12-10.17A21.26,21.26,0,0,0,159,97.6l2.7,1.47h33.05v-.75A4.25,4.25,0,0,1,199,94.09h.31a2.23,2.23,0,0,0-2.22-2.15Zm40.39,12.85H197v-1.5a2.24,2.24,0,0,0-.25-1v2.53Zm2.25,0h.28V96.1H199a2.23,2.23,0,0,0-2.22,2.22v1.24a4.24,4.24,0,0,1,2.25,3.73v1.5Zm2.28,0h3V98.32A2.24,2.24,0,0,0,202,96.1h-.72v8.69Zm216.13-6.42.21-.05v-.2l-.21-.05v.3Zm5.94,2.53.31,0V99.56l-.31-.07v1.41Zm.31-2.66V98l-.31-.07v.43l.31-.07Zm-6,1.4v-.23l-.11,0c0,.15,0,.22-.1.26v0l.21,0Zm131.73-27H534.16a113.17,113.17,0,0,1-.73,11.91,5,5,0,0,1,2,2.75,5,5,0,0,1,3.27,4.66v5.43h4.51c4-4.94,5.55-15.83,6.14-24.75Zm-16.32,17H525.5L526,92h2.53v6h4.57V89.64ZM535.14,98h1v-6a2.32,2.32,0,0,0-1-1.9V98Zm-10.3-11.59.24,1.21h7.71a2.3,2.3,0,0,0-2-1.21Zm46.82-23.68c0-.31,0-.61,0-.91H550.4v.91ZM532.42,90.51a24.49,24.49,0,0,1-2.49,6.86h2.49V90.51Zm17.06-19.26H534.17c0,.22,0,.45,0,.69h15.28c0-.23,0-.46,0-.69ZM132.17,74.46h-14.4a105.41,105.41,0,0,1-.69,11.26,4.71,4.71,0,0,1,1.93,2.6,4.69,4.69,0,0,1,3.09,4.4v5.12h4.26c3.76-4.66,5.24-15,5.81-23.38ZM116.74,90.55h-7.15c.31.77.63,1.5,1,2.19h1.85v2.72a14.7,14.7,0,0,1,2.09,1,27.47,27.47,0,0,0,1.62-5.07v6.11l.61.49V90.55Zm2,7.85h.94V92.72a2.18,2.18,0,0,0-.94-1.8V98.4ZM109,87.46l.23,1.13h7.29a2.19,2.19,0,0,0-1.91-1.13ZM153.2,65.08v-.86H133.12v.86Zm-20.95,8.09H117.78v.65h14.43c0-.22,0-.44,0-.65Zm-75.36,13H47.55L48.14,89h3.11v7.37h5.64V86.14Zm2.55,10.25V86.63A2.83,2.83,0,0,1,60.68,89v7.42ZM46.74,82.1l.3,1.49h9.51a2.85,2.85,0,0,0-2.49-1.49Zm57.74-29.2V51.77H78.27V52.9ZM56.09,87.2A29.89,29.89,0,0,1,53,95.66h3.07V87.2Zm21-23.75H58.25c0,.28,0,.56,0,.85H77.08C77.1,64,77.12,63.73,77.13,63.45Z"/><path class="cls-4" d="M0,110.4a3.85,3.85,0,0,0,.78-2c.24-1.15.54-2.38,1.47-2.58,1.61-.36,2.27.5,2.83,1.48s1,2.09,2.36,2.21a4.48,4.48,0,0,0,2.74-.42A3,3,0,0,0,11.26,108a5.88,5.88,0,0,0,.66-2.14c0-.31.68-.57,1.11-.71,1.36-.46,1.77,1.45,2.81.8,2.42-1.52,3.09,1.26,4.32,2s.61,1.22,1.84,1.67,2.64-.62,3.92-1.86,2.58-2.66,4-2.7,1.75,6.35,4.19,7.1c1.75.53,3-1.7,5-1.91,1-.1,2.2-1.26,3.26-1.15,1.54.16,2.84-1.27,3.24-2.74s2.1-3,3.13-1.93a9.45,9.45,0,0,1,1.63,2.6,5,5,0,0,0,1.51,2.07c2.09,1.44,2.9-1.8,3.15-2.34,1-2.08,3.35-5.06,4.46-.39.29,1.18,2.11,2.13,3.33,2,.75-.09,1.43-.86,2.09-1.65s1.29-1.57,1.9-1.69c1.77-.34,2.58,3.89,3.47,5.14s1.87,2.26,4.07.91c4.35-2.66,8.75,1.29,8.75-1.47,0-.68,1.94-1.5,2.1-2,.61-1.76,2.79-.82,3.22-.05s2.71,1.65,4.85.78c1.89-.78,1.35-2.47,4.23-2.68,1.29-.1,1.47,2.1,2.9,2.83a3.5,3.5,0,0,0,2,.13c.18-.66.45-1.18.93-1.22a1.79,1.79,0,0,1,1.77.88c1.06.37,1.52,2.56,3.64.37.57-.59,1.36-2.46,3.24-.63.79-.41,1.11-1.56,1.83-1.9,1.89-.9,2.39,1.36,3.36,2.09s.47,1,1.45,1.46c2.08,1,3.94-2.82,6.09-2.57,1.09.12,1.34,1.45,3.24,2.19,1.34.52,2.31-.92,3.87-.88.79,0,1.7,1.16,2.52,1.32a2.21,2.21,0,0,0,2.49-1.49c.33-1,1.65-1.71,2.44-.93a6.51,6.51,0,0,1,1.25,1.77,3.39,3.39,0,0,0,1.18,1.4c1.63,1,2.25-.89,2.44-1.2.76-1.19,2.58-2.75,3.45.11.22.72,1.63,1.42,2.58,1.43,1.13,0,2.17-1.57,3.08-1.61,2.76-.11,2.39,3.54,5.82,2.37s6.77,1.22,6.77-.19c0-.35,1.51-.62,1.63-.84.49-.85,2.17-.2,2.49.21a4.92,4.92,0,0,0,3.76.73c1.45-.24,1-1.09,3.26-1,1,0,1.16,1.1,2.25,1.54.86.35,2.67.12,3.39.2,1,.12,1.27,1.34,3,.45.45-.23,1.11-1,2.74.12a8.86,8.86,0,0,0,3.47.87c.18-.17.41-.35.58-.29s.23.23.37.41l.72.09c.14-.32.16-.89.5-.89.86,0,.73.94,1.36,1.16l.75.07c.54-.12.2-.79.88-.88.36,0,.48-.44.77-.54.82-.28,3.24,1.31,4.05,2.34,1.73.45,2.45.91,2.27,1.24-36-1.16-72-1.89-108-.91-32,.88-64.09,3.08-96.13,5.69Z"/><path class="cls-5" d="M542,111.17c.44-.21.62-.82.8-1.46.24-.85.52-1.74,1.41-1.84a2.51,2.51,0,0,1,2.7,1.24c.54.75,1,1.59,2.25,1.74a5.32,5.32,0,0,0,2.61-.17,2.42,2.42,0,0,0,1-.8,3.48,3.48,0,0,0,.63-1.54c0-.23.65-.39,1.06-.47,1.29-.28,1.69-1.58,2.68-2,2.31-1,3,1.08,4.13,1.72s.58.93,1.75,1.32,2.52-.33,3.74-1.18,2.46-1.84,3.8-1.79,1.67,1.38,4,2c1.67.49,2.86-1.1,4.78-1.15,1,0,2.1,1.19,3.11,1.32a3,3,0,0,0,3.09-1.86c.42-1.15,2-2.11,3-1.28a7.74,7.74,0,0,1,1.55,2,4.21,4.21,0,0,0,1.45,1.6c2,1.17,2.77-1.18,3-1.57.92-1.49,3.19-3.57,4.26-.07.27.89,2,1.68,3.17,1.63a3.67,3.67,0,0,0,2-1.12,4,4,0,0,1,1.82-1.16c1.68-.16,2.46,1,3.31,2s1.79,1.75,3.89.87c4.15-1.76,8.34,1.38,8.34-.66,0-.5,1.86-1,2-1.34.58-1.28,2.66-.48,3.07.12s2.59,1.35,4.63.81c1.81-.48,1.29-1.76,4-1.77,1.23,0,1.4,1.62,2.77,2.24a4.38,4.38,0,0,0,1.88.18c.17-.47.43-.84.88-.85a2,2,0,0,1,1.69.74c1,.32,1.45,2,3.48.45.54-.41,1.3-1.75,3.09-.31.76-.26,1.06-1.09,1.75-1.31,1.8-.57,2.27,1.12,3.2,1.71s.46.76,1.39,1.15c2,.82,3.76-5,5.81-4.66,1,.15,1.28,1.14,3.09,1.78,1.28.45,2.21-.56,3.7-.46.75.06,1.62,1,2.4,1.1a2.1,2.1,0,0,0,2.38-1,1.64,1.64,0,0,1,2.33-.56,5.44,5.44,0,0,1,1.19,1.37,3,3,0,0,0,1.12,1.09,1.6,1.6,0,0,0,2.34-.77c.72-.84,2.46-5.39,3.28-3.24.22.55,1.56,1.13,2.47,1.19,1.08,0,2.08-1.06,2.94-1,2.64.05,2.29,2.73,5.55,2a7.61,7.61,0,0,1,1.33-.14v9.5c-20.46-1.32-40.91-2.38-61.36-3-30.6-.93-61.21-.88-91.81-.52Z"/><path class="cls-6" d="M695.12,115C508.71,108.39,181.47,107,0,117.39V169.1H695.12Z"/><path class="cls-7" d="M143.74,169.1c63.8-10.21,290.08-57,551.38-57v57Z"/><path class="cls-8" d="M0,130.28c214.67-35.53,532,46.59,695.12,23.94v19.56H0Z"/></g></g></svg>